<svg class="rich-terminal" viewBox="0 0 1360 782.0" xmlns="http://www.w3.org/2000/svg">
    <!-- Generated with Rich https://www.textualize.io -->
    <style>

    @font-face {
        font-family: "Fira Code";
        src: local("FiraCode-Regular"),
                url("https://cdnjs.cloudflare.com/ajax/libs/firacode/6.2.0/woff2/FiraCode-Regular.woff2") format("woff2"),
                url("https://cdnjs.cloudflare.com/ajax/libs/firacode/6.2.0/woff/FiraCode-Regular.woff") format("woff");
        font-style: normal;
        font-weight: 400;
    }
    @font-face {
        font-family: "Fira Code";
        src: local("FiraCode-Bold"),
                url("https://cdnjs.cloudflare.com/ajax/libs/firacode/6.2.0/woff2/FiraCode-Bold.woff2") format("woff2"),
                url("https://cdnjs.cloudflare.com/ajax/libs/firacode/6.2.0/woff/FiraCode-Bold.woff") format("woff");
        font-style: bold;
        font-weight: 700;
    }

    .terminal-615521717-matrix {
        font-family: Fira Code, monospace;
        font-size: 20px;
        line-height: 24.4px;
        font-variant-east-asian: full-width;
    }

    .terminal-615521717-title {
        font-size: 18px;
        font-weight: bold;
        font-family: arial;
    }

    .terminal-615521717-r1 { fill: #242f38;font-weight: bold }
.terminal-615521717-r2 { fill: #e0e0e0 }
.terminal-615521717-r3 { fill: #e0e0e0;font-weight: bold }
.terminal-615521717-r4 { fill: #a0a3a6 }
.terminal-615521717-r5 { fill: #fd971f;font-weight: bold }
.terminal-615521717-r6 { fill: #c5c8c6 }
.terminal-615521717-r7 { fill: #ddedf9;font-weight: bold }
.terminal-615521717-r8 { fill: #a1a1a1 }
.terminal-615521717-r9 { fill: #ffa62b;font-weight: bold }
.terminal-615521717-r10 { fill: #495259 }
    </style>

    <defs>
    <clipPath id="terminal-615521717-clip-terminal">
      <rect x="0" y="0" width="1341.0" height="731.0" />
    </clipPath>
    <clipPath id="terminal-615521717-line-0">
    <rect x="0" y="1.5" width="1342" height="24.65"/>
            </clipPath>
<clipPath id="terminal-615521717-line-1">
    <rect x="0" y="25.9" width="1342" height="24.65"/>
            </clipPath>
<clipPath id="terminal-615521717-line-2">
    <rect x="0" y="50.3" width="1342" height="24.65"/>
            </clipPath>
<clipPath id="terminal-615521717-line-3">
    <rect x="0" y="74.7" width="1342" height="24.65"/>
            </clipPath>
<clipPath id="terminal-615521717-line-4">
    <rect x="0" y="99.1" width="1342" height="24.65"/>
            </clipPath>
<clipPath id="terminal-615521717-line-5">
    <rect x="0" y="123.5" width="1342" height="24.65"/>
            </clipPath>
<clipPath id="terminal-615521717-line-6">
    <rect x="0" y="147.9" width="1342" height="24.65"/>
            </clipPath>
<clipPath id="terminal-615521717-line-7">
    <rect x="0" y="172.3" width="1342" height="24.65"/>
            </clipPath>
<clipPath id="terminal-615521717-line-8">
    <rect x="0" y="196.7" width="1342" height="24.65"/>
            </clipPath>
<clipPath id="terminal-615521717-line-9">
    <rect x="0" y="221.1" width="1342" height="24.65"/>
            </clipPath>
<clipPath id="terminal-615521717-line-10">
    <rect x="0" y="245.5" width="1342" height="24.65"/>
            </clipPath>
<clipPath id="terminal-615521717-line-11">
    <rect x="0" y="269.9" width="1342" height="24.65"/>
            </clipPath>
<clipPath id="terminal-615521717-line-12">
    <rect x="0" y="294.3" width="1342" height="24.65"/>
            </clipPath>
<clipPath id="terminal-615521717-line-13">
    <rect x="0" y="318.7" width="1342" height="24.65"/>
            </clipPath>
<clipPath id="terminal-615521717-line-14">
    <rect x="0" y="343.1" width="1342" height="24.65"/>
            </clipPath>
<clipPath id="terminal-615521717-line-15">
    <rect x="0" y="367.5" width="1342" height="24.65"/>
            </clipPath>
<clipPath id="terminal-615521717-line-16">
    <rect x="0" y="391.9" width="1342" height="24.65"/>
            </clipPath>
<clipPath id="terminal-615521717-line-17">
    <rect x="0" y="416.3" width="1342" height="24.65"/>
            </clipPath>
<clipPath id="terminal-615521717-line-18">
    <rect x="0" y="440.7" width="1342" height="24.65"/>
            </clipPath>
<clipPath id="terminal-615521717-line-19">
    <rect x="0" y="465.1" width="1342" height="24.65"/>
            </clipPath>
<clipPath id="terminal-615521717-line-20">
    <rect x="0" y="489.5" width="1342" height="24.65"/>
            </clipPath>
<clipPath id="terminal-615521717-line-21">
    <rect x="0" y="513.9" width="1342" height="24.65"/>
            </clipPath>
<clipPath id="terminal-615521717-line-22">
    <rect x="0" y="538.3" width="1342" height="24.65"/>
            </clipPath>
<clipPath id="terminal-615521717-line-23">
    <rect x="0" y="562.7" width="1342" height="24.65"/>
            </clipPath>
<clipPath id="terminal-615521717-line-24">
    <rect x="0" y="587.1" width="1342" height="24.65"/>
            </clipPath>
<clipPath id="terminal-615521717-line-25">
    <rect x="0" y="611.5" width="1342" height="24.65"/>
            </clipPath>
<clipPath id="terminal-615521717-line-26">
    <rect x="0" y="635.9" width="1342" height="24.65"/>
            </clipPath>
<clipPath id="terminal-615521717-line-27">
    <rect x="0" y="660.3" width="1342" height="24.65"/>
            </clipPath>
<clipPath id="terminal-615521717-line-28">
    <rect x="0" y="684.7" width="1342" height="24.65"/>
            </clipPath>
    </defs>

    <rect fill="#292929" stroke="rgba(255,255,255,0.35)" stroke-width="1" x="1" y="1" width="1358" height="780" rx="8"/><text class="terminal-615521717-title" fill="#c5c8c6" text-anchor="middle" x="679" y="27">ralph</text>
            <g transform="translate(26,22)">
            <circle cx="0" cy="0" r="7" fill="#ff5f57"/>
            <circle cx="22" cy="0" r="7" fill="#febc2e"/>
            <circle cx="44" cy="0" r="7" fill="#28c840"/>
            </g>
        
    <g transform="translate(9, 41)" clip-path="url(#terminal-615521717-clip-terminal)">
    <rect fill="#e0e0e0" x="0" y="1.5" width="85.4" height="24.65" shape-rendering="crispEdges"/><rect fill="#242f38" x="85.4" y="1.5" width="24.4" height="24.65" shape-rendering="crispEdges"/><rect fill="#242f38" x="109.8" y="1.5" width="134.2" height="24.65" shape-rendering="crispEdges"/><rect fill="#242f38" x="244" y="1.5" width="24.4" height="24.65" shape-rendering="crispEdges"/><rect fill="#242f38" x="268.4" y="1.5" width="451.4" height="24.65" shape-rendering="crispEdges"/><rect fill="#242f38" x="719.8" y="1.5" width="24.4" height="24.65" shape-rendering="crispEdges"/><rect fill="#242f38" x="744.2" y="1.5" width="109.8" height="24.65" shape-rendering="crispEdges"/><rect fill="#242f38" x="854" y="1.5" width="73.2" height="24.65" shape-rendering="crispEdges"/><rect fill="#242f38" x="927.2" y="1.5" width="134.2" height="24.65" shape-rendering="crispEdges"/><rect fill="#242f38" x="1061.4" y="1.5" width="12.2" height="24.65" shape-rendering="crispEdges"/><rect fill="#242f38" x="1073.6" y="1.5" width="85.4" height="24.65" shape-rendering="crispEdges"/><rect fill="#242f38" x="1159" y="1.5" width="12.2" height="24.65" shape-rendering="crispEdges"/><rect fill="#242f38" x="1171.2" y="1.5" width="97.6" height="24.65" shape-rendering="crispEdges"/><rect fill="#242f38" x="1268.8" y="1.5" width="61" height="24.65" shape-rendering="crispEdges"/><rect fill="#242f38" x="1329.8" y="1.5" width="12.2" height="24.65" shape-rendering="crispEdges"/><rect fill="#2d3740" x="0" y="25.9" width="36.6" height="24.65" shape-rendering="crispEdges"/><rect fill="#2d3740" x="36.6" y="25.9" width="146.4" height="24.65" shape-rendering="crispEdges"/><rect fill="#2d3740" x="183" y="25.9" width="109.8" height="24.65" shape-rendering="crispEdges"/><rect fill="#2d3740" x="292.8" y="25.9" width="122" height="24.65" shape-rendering="crispEdges"/><rect fill="#2d3740" x="414.8" y="25.9" width="61" height="24.65" shape-rendering="crispEdges"/><rect fill="#2d3740" x="475.8" y="25.9" width="73.2" height="24.65" shape-rendering="crispEdges"/><rect fill="#2d3740" x="549" y="25.9" width="61" height="24.65" shape-rendering="crispEdges"/><rect fill="#2d3740" x="610" y="25.9" width="97.6" height="24.65" shape-rendering="crispEdges"/><rect fill="#2d3740" x="707.6" y="25.9" width="73.2" height="24.65" shape-rendering="crispEdges"/><rect fill="#2b3339" x="780.8" y="25.9" width="561.2" height="24.65" shape-rendering="crispEdges"/><rect fill="#0178d4" x="0" y="50.3" width="36.6" height="24.65" shape-rendering="crispEdges"/><rect fill="#0178d4" x="36.6" y="50.3" width="146.4" height="24.65" shape-rendering="crispEdges"/><rect fill="#0178d4" x="183" y="50.3" width="109.8" height="24.65" shape-rendering="crispEdges"/><rect fill="#0178d4" x="292.8" y="50.3" width="122" height="24.65" shape-rendering="crispEdges"/><rect fill="#0178d4" x="414.8" y="50.3" width="61" height="24.65" shape-rendering="crispEdges"/><rect fill="#0178d4" x="475.8" y="50.3" width="73.2" height="24.65" shape-rendering="crispEdges"/><rect fill="#0178d4" x="549" y="50.3" width="61" height="24.65" shape-rendering="crispEdges"/><rect fill="#0178d4" x="610" y="50.3" width="97.6" height="24.65" shape-rendering="crispEdges"/><rect fill="#0178d4" x="707.6" y="50.3" width="73.2" height="24.65" shape-rendering="crispEdges"/><rect fill="#1e1e1e" x="780.8" y="50.3" width="561.2" height="24.65" shape-rendering="crispEdges"/><rect fill="#272727" x="0" y="74.7" width="12.2" height="24.65" shape-rendering="crispEdges"/><rect fill="#272727" x="12.2" y="74.7" width="12.2" height="24.65" shape-rendering="crispEdges"/><rect fill="#272727" x="24.4" y="74.7" width="12.2" height="24.65" shape-rendering="crispEdges"/><rect fill="#272727" x="36.6" y="74.7" width="146.4" height="24.65" shape-rendering="crispEdges"/><rect fill="#272727" x="183" y="74.7" width="12.2" height="24.65" shape-rendering="crispEdges"/><rect fill="#272727" x="195.2" y="74.7" width="85.4" height="24.65" shape-rendering="crispEdges"/><rect fill="#272727" x="280.6" y="74.7" width="12.2" height="24.65" shape-rendering="crispEdges"/><rect fill="#272727" x="292.8" y="74.7" width="122" height="24.65" shape-rendering="crispEdges"/><rect fill="#272727" x="414.8" y="74.7" width="61" height="24.65" shape-rendering="crispEdges"/><rect fill="#272727" x="475.8" y="74.7" width="73.2" height="24.65" shape-rendering="crispEdges"/><rect fill="#272727" x="549" y="74.7" width="61" height="24.65" shape-rendering="crispEdges"/><rect fill="#272727" x="610" y="74.7" width="97.6" height="24.65" shape-rendering="crispEdges"/><rect fill="#272727" x="707.6" y="74.7" width="73.2" height="24.65" shape-rendering="crispEdges"/><rect fill="#272727" x="780.8" y="74.7" width="561.2" height="24.65" shape-rendering="crispEdges"/><rect fill="#1c1c1c" x="0" y="99.1" width="12.2" height="24.65" shape-rendering="crispEdges"/><rect fill="#1c1c1c" x="12.2" y="99.1" width="12.2" height="24.65" shape-rendering="crispEdges"/><rect fill="#1c1c1c" x="24.4" y="99.1" width="12.2" height="24.65" shape-rendering="crispEdges"/><rect fill="#1c1c1c" x="36.6" y="99.1" width="146.4" height="24.65" shape-rendering="crispEdges"/><rect fill="#1c1c1c" x="183" y="99.1" width="12.2" height="24.65" shape-rendering="crispEdges"/><rect fill="#1c1c1c" x="195.2" y="99.1" width="85.4" height="24.65" shape-rendering="crispEdges"/><rect fill="#1c1c1c" x="280.6" y="99.1" width="12.2" height="24.65" shape-rendering="crispEdges"/><rect fill="#1c1c1c" x="292.8" y="99.1" width="122" height="24.65" shape-rendering="crispEdges"/><rect fill="#1c1c1c" x="414.8" y="99.1" width="61" height="24.65" shape-rendering="crispEdges"/><rect fill="#1c1c1c" x="475.8" y="99.1" width="73.2" height="24.65" shape-rendering="crispEdges"/><rect fill="#1c1c1c" x="549" y="99.1" width="61" height="24.65" shape-rendering="crispEdges"/><rect fill="#1c1c1c" x="610" y="99.1" width="97.6" height="24.65" shape-rendering="crispEdges"/><rect fill="#1c1c1c" x="707.6" y="99.1" width="73.2" height="24.65" shape-rendering="crispEdges"/><rect fill="#1e1e1e" x="780.8" y="99.1" width="561.2" height="24.65" shape-rendering="crispEdges"/><rect fill="#272727" x="0" y="123.5" width="1342" height="24.65" shape-rendering="crispEdges"/><rect fill="#272727" x="0" y="147.9" width="1342" height="24.65" shape-rendering="crispEdges"/><rect fill="#272727" x="0" y="172.3" width="1342" height="24.65" shape-rendering="crispEdges"/><rect fill="#272727" x="0" y="196.7" width="1342" height="24.65" shape-rendering="crispEdges"/><rect fill="#272727" x="0" y="221.1" width="1342" height="24.65" shape-rendering="crispEdges"/><rect fill="#272727" x="0" y="245.5" width="1342" height="24.65" shape-rendering="crispEdges"/><rect fill="#272727" x="0" y="269.9" width="1342" height="24.65" shape-rendering="crispEdges"/><rect fill="#272727" x="0" y="294.3" width="1342" height="24.65" shape-rendering="crispEdges"/><rect fill="#272727" x="0" y="318.7" width="1342" height="24.65" shape-rendering="crispEdges"/><rect fill="#272727" x="0" y="343.1" width="1342" height="24.65" shape-rendering="crispEdges"/><rect fill="#272727" x="0" y="367.5" width="1342" height="24.65" shape-rendering="crispEdges"/><rect fill="#272727" x="0" y="391.9" width="1342" height="24.65" shape-rendering="crispEdges"/><rect fill="#272727" x="0" y="416.3" width="1342" height="24.65" shape-rendering="crispEdges"/><rect fill="#272727" x="0" y="440.7" width="1342" height="24.65" shape-rendering="crispEdges"/><rect fill="#272727" x="0" y="465.1" width="1342" height="24.65" shape-rendering="crispEdges"/><rect fill="#272727" x="0" y="489.5" width="1342" height="24.65" shape-rendering="crispEdges"/><rect fill="#272727" x="0" y="513.9" width="1342" height="24.65" shape-rendering="crispEdges"/><rect fill="#272727" x="0" y="538.3" width="1342" height="24.65" shape-rendering="crispEdges"/><rect fill="#272727" x="0" y="562.7" width="1342" height="24.65" shape-rendering="crispEdges"/><rect fill="#272727" x="0" y="587.1" width="1342" height="24.65" shape-rendering="crispEdges"/><rect fill="#272727" x="0" y="611.5" width="1342" height="24.65" shape-rendering="crispEdges"/><rect fill="#272727" x="0" y="635.9" width="1342" height="24.65" shape-rendering="crispEdges"/><rect fill="#272727" x="0" y="660.3" width="1342" height="24.65" shape-rendering="crispEdges"/><rect fill="#272727" x="0" y="684.7" width="1342" height="24.65" shape-rendering="crispEdges"/><rect fill="#242f38" x="0" y="709.1" width="36.6" height="24.65" shape-rendering="crispEdges"/><rect fill="#242f38" x="36.6" y="709.1" width="85.4" height="24.65" shape-rendering="crispEdges"/><rect fill="#242f38" x="122" y="709.1" width="1073.6" height="24.65" shape-rendering="crispEdges"/><rect fill="#242f38" x="1195.6" y="709.1" width="12.2" height="24.65" shape-rendering="crispEdges"/><rect fill="#242f38" x="1207.8" y="709.1" width="24.4" height="24.65" shape-rendering="crispEdges"/><rect fill="#242f38" x="1232.2" y="709.1" width="97.6" height="24.65" shape-rendering="crispEdges"/><rect fill="#242f38" x="1329.8" y="709.1" width="12.2" height="24.65" shape-rendering="crispEdges"/>
    <g class="terminal-615521717-matrix">
    <text class="terminal-615521717-r1" x="0" y="20" textLength="85.4" clip-path="url(#terminal-615521717-line-0)">&#160;ralph&#160;</text><text class="terminal-615521717-r3" x="109.8" y="20" textLength="134.2" clip-path="url(#terminal-615521717-line-0)">acme-webapp</text><text class="terminal-615521717-r4" x="268.4" y="20" textLength="451.4" clip-path="url(#terminal-615521717-line-0)">factory-20260720-171928.879456-f35e4e</text><text class="terminal-615521717-r5" x="744.2" y="20" textLength="109.8" clip-path="url(#terminal-615521717-line-0)">in&#160;flight</text><text class="terminal-615521717-r4" x="854" y="20" textLength="73.2" clip-path="url(#terminal-615521717-line-0)">&#160;&#160;0:01</text><text class="terminal-615521717-r4" x="1073.6" y="20" textLength="85.4" clip-path="url(#terminal-615521717-line-0)">tokens&#160;</text><text class="terminal-615521717-r3" x="1159" y="20" textLength="12.2" clip-path="url(#terminal-615521717-line-0)">0</text><text class="terminal-615521717-r4" x="1171.2" y="20" textLength="97.6" clip-path="url(#terminal-615521717-line-0)">&#160;&#160;&#160;cost&#160;</text><text class="terminal-615521717-r3" x="1268.8" y="20" textLength="61" clip-path="url(#terminal-615521717-line-0)">$0.00</text><text class="terminal-615521717-r6" x="1342" y="20" textLength="12.2" clip-path="url(#terminal-615521717-line-0)">
</text><text class="terminal-615521717-r3" x="36.6" y="44.4" textLength="146.4" clip-path="url(#terminal-615521717-line-1)">&#160;component&#160;&#160;</text><text class="terminal-615521717-r3" x="183" y="44.4" textLength="109.8" clip-path="url(#terminal-615521717-line-1)">&#160;status&#160;&#160;</text><text class="terminal-615521717-r3" x="292.8" y="44.4" textLength="122" clip-path="url(#terminal-615521717-line-1)">&#160;phase&#160;&#160;&#160;&#160;</text><text class="terminal-615521717-r3" x="414.8" y="44.4" textLength="61" clip-path="url(#terminal-615521717-line-1)">&#160;att&#160;</text><text class="terminal-615521717-r3" x="475.8" y="44.4" textLength="73.2" clip-path="url(#terminal-615521717-line-1)">&#160;iter&#160;</text><text class="terminal-615521717-r3" x="549" y="44.4" textLength="61" clip-path="url(#terminal-615521717-line-1)">&#160;age&#160;</text><text class="terminal-615521717-r3" x="610" y="44.4" textLength="97.6" clip-path="url(#terminal-615521717-line-1)">&#160;tokens&#160;</text><text class="terminal-615521717-r3" x="707.6" y="44.4" textLength="73.2" clip-path="url(#terminal-615521717-line-1)">&#160;cost&#160;</text><text class="terminal-615521717-r6" x="1342" y="44.4" textLength="12.2" clip-path="url(#terminal-615521717-line-1)">
</text><text class="terminal-615521717-r7" x="0" y="68.8" textLength="36.6" clip-path="url(#terminal-615521717-line-2)">&#160;&gt;&#160;</text><text class="terminal-615521717-r7" x="36.6" y="68.8" textLength="146.4" clip-path="url(#terminal-615521717-line-2)">&#160;auth-core&#160;&#160;</text><text class="terminal-615521717-r7" x="183" y="68.8" textLength="109.8" clip-path="url(#terminal-615521717-line-2)">&#160;running&#160;</text><text class="terminal-615521717-r7" x="292.8" y="68.8" textLength="122" clip-path="url(#terminal-615521717-line-2)">&#160;engineer&#160;</text><text class="terminal-615521717-r7" x="414.8" y="68.8" textLength="61" clip-path="url(#terminal-615521717-line-2)">&#160;1&#160;&#160;&#160;</text><text class="terminal-615521717-r7" x="475.8" y="68.8" textLength="73.2" clip-path="url(#terminal-615521717-line-2)">&#160;1&#160;&#160;&#160;&#160;</text><text class="terminal-615521717-r7" x="549" y="68.8" textLength="61" clip-path="url(#terminal-615521717-line-2)">&#160;1s&#160;&#160;</text><text class="terminal-615521717-r7" x="610" y="68.8" textLength="97.6" clip-path="url(#terminal-615521717-line-2)">&#160;-&#160;&#160;&#160;&#160;&#160;&#160;</text><text class="terminal-615521717-r7" x="707.6" y="68.8" textLength="73.2" clip-path="url(#terminal-615521717-line-2)">&#160;-&#160;&#160;&#160;&#160;</text><text class="terminal-615521717-r6" x="1342" y="68.8" textLength="12.2" clip-path="url(#terminal-615521717-line-2)">
</text><text class="terminal-615521717-r8" x="12.2" y="93.2" textLength="12.2" clip-path="url(#terminal-615521717-line-3)">.</text><text class="terminal-615521717-r2" x="36.6" y="93.2" textLength="146.4" clip-path="url(#terminal-615521717-line-3)">&#160;api-routes&#160;</text><text class="terminal-615521717-r8" x="195.2" y="93.2" textLength="85.4" clip-path="url(#terminal-615521717-line-3)">pending</text><text class="terminal-615521717-r2" x="292.8" y="93.2" textLength="122" clip-path="url(#terminal-615521717-line-3)">&#160;-&#160;&#160;&#160;&#160;&#160;&#160;&#160;&#160;</text><text class="terminal-615521717-r2" x="414.8" y="93.2" textLength="61" clip-path="url(#terminal-615521717-line-3)">&#160;1&#160;&#160;&#160;</text><text class="terminal-615521717-r2" x="475.8" y="93.2" textLength="73.2" clip-path="url(#terminal-615521717-line-3)">&#160;-&#160;&#160;&#160;&#160;</text><text class="terminal-615521717-r2" x="549" y="93.2" textLength="61" clip-path="url(#terminal-615521717-line-3)">&#160;-&#160;&#160;&#160;</text><text class="terminal-615521717-r2" x="610" y="93.2" textLength="97.6" clip-path="url(#terminal-615521717-line-3)">&#160;-&#160;&#160;&#160;&#160;&#160;&#160;</text><text class="terminal-615521717-r2" x="707.6" y="93.2" textLength="73.2" clip-path="url(#terminal-615521717-line-3)">&#160;-&#160;&#160;&#160;&#160;</text><text class="terminal-615521717-r6" x="1342" y="93.2" textLength="12.2" clip-path="url(#terminal-615521717-line-3)">
</text><text class="terminal-615521717-r8" x="12.2" y="117.6" textLength="12.2" clip-path="url(#terminal-615521717-line-4)">.</text><text class="terminal-615521717-r2" x="36.6" y="117.6" textLength="146.4" clip-path="url(#terminal-615521717-line-4)">&#160;ui-shell&#160;&#160;&#160;</text><text class="terminal-615521717-r8" x="195.2" y="117.6" textLength="85.4" clip-path="url(#terminal-615521717-line-4)">pending</text><text class="terminal-615521717-r2" x="292.8" y="117.6" textLength="122" clip-path="url(#terminal-615521717-line-4)">&#160;-&#160;&#160;&#160;&#160;&#160;&#160;&#160;&#160;</text><text class="terminal-615521717-r2" x="414.8" y="117.6" textLength="61" clip-path="url(#terminal-615521717-line-4)">&#160;1&#160;&#160;&#160;</text><text class="terminal-615521717-r2" x="475.8" y="117.6" textLength="73.2" clip-path="url(#terminal-615521717-line-4)">&#160;-&#160;&#160;&#160;&#160;</text><text class="terminal-615521717-r2" x="549" y="117.6" textLength="61" clip-path="url(#terminal-615521717-line-4)">&#160;-&#160;&#160;&#160;</text><text class="terminal-615521717-r2" x="610" y="117.6" textLength="97.6" clip-path="url(#terminal-615521717-line-4)">&#160;-&#160;&#160;&#160;&#160;&#160;&#160;</text><text class="terminal-615521717-r2" x="707.6" y="117.6" textLength="73.2" clip-path="url(#terminal-615521717-line-4)">&#160;-&#160;&#160;&#160;&#160;</text><text class="terminal-615521717-r6" x="1342" y="117.6" textLength="12.2" clip-path="url(#terminal-615521717-line-4)">
</text><text class="terminal-615521717-r6" x="1342" y="142" textLength="12.2" clip-path="url(#terminal-615521717-line-5)">
</text><text class="terminal-615521717-r6" x="1342" y="166.4" textLength="12.2" clip-path="url(#terminal-615521717-line-6)">
</text><text class="terminal-615521717-r6" x="1342" y="190.8" textLength="12.2" clip-path="url(#terminal-615521717-line-7)">
</text><text class="terminal-615521717-r6" x="1342" y="215.2" textLength="12.2" clip-path="url(#terminal-615521717-line-8)">
</text><text class="terminal-615521717-r6" x="1342" y="239.6" textLength="12.2" clip-path="url(#terminal-615521717-line-9)">
</text><text class="terminal-615521717-r6" x="1342" y="264" textLength="12.2" clip-path="url(#terminal-615521717-line-10)">
</text><text class="terminal-615521717-r6" x="1342" y="288.4" textLength="12.2" clip-path="url(#terminal-615521717-line-11)">
</text><text class="terminal-615521717-r6" x="1342" y="312.8" textLength="12.2" clip-path="url(#terminal-615521717-line-12)">
</text><text class="terminal-615521717-r6" x="1342" y="337.2" textLength="12.2" clip-path="url(#terminal-615521717-line-13)">
</text><text class="terminal-615521717-r6" x="1342" y="361.6" textLength="12.2" clip-path="url(#terminal-615521717-line-14)">
</text><text class="terminal-615521717-r6" x="1342" y="386" textLength="12.2" clip-path="url(#terminal-615521717-line-15)">
</text><text class="terminal-615521717-r6" x="1342" y="410.4" textLength="12.2" clip-path="url(#terminal-615521717-line-16)">
</text><text class="terminal-615521717-r6" x="1342" y="434.8" textLength="12.2" clip-path="url(#terminal-615521717-line-17)">
</text><text class="terminal-615521717-r6" x="1342" y="459.2" textLength="12.2" clip-path="url(#terminal-615521717-line-18)">
</text><text class="terminal-615521717-r6" x="1342" y="483.6" textLength="12.2" clip-path="url(#terminal-615521717-line-19)">
</text><text class="terminal-615521717-r6" x="1342" y="508" textLength="12.2" clip-path="url(#terminal-615521717-line-20)">
</text><text class="terminal-615521717-r6" x="1342" y="532.4" textLength="12.2" clip-path="url(#terminal-615521717-line-21)">
</text><text class="terminal-615521717-r6" x="1342" y="556.8" textLength="12.2" clip-path="url(#terminal-615521717-line-22)">
</text><text class="terminal-615521717-r6" x="1342" y="581.2" textLength="12.2" clip-path="url(#terminal-615521717-line-23)">
</text><text class="terminal-615521717-r6" x="1342" y="605.6" textLength="12.2" clip-path="url(#terminal-615521717-line-24)">
</text><text class="terminal-615521717-r6" x="1342" y="630" textLength="12.2" clip-path="url(#terminal-615521717-line-25)">
</text><text class="terminal-615521717-r6" x="1342" y="654.4" textLength="12.2" clip-path="url(#terminal-615521717-line-26)">
</text><text class="terminal-615521717-r6" x="1342" y="678.8" textLength="12.2" clip-path="url(#terminal-615521717-line-27)">
</text><text class="terminal-615521717-r6" x="1342" y="703.2" textLength="12.2" clip-path="url(#terminal-615521717-line-28)">
</text><text class="terminal-615521717-r9" x="0" y="727.6" textLength="36.6" clip-path="url(#terminal-615521717-line-29)">&#160;q&#160;</text><text class="terminal-615521717-r2" x="36.6" y="727.6" textLength="85.4" clip-path="url(#terminal-615521717-line-29)">Detach&#160;</text><text class="terminal-615521717-r10" x="1195.6" y="727.6" textLength="12.2" clip-path="url(#terminal-615521717-line-29)">▏</text><text class="terminal-615521717-r9" x="1207.8" y="727.6" textLength="24.4" clip-path="url(#terminal-615521717-line-29)">^p</text><text class="terminal-615521717-r2" x="1232.2" y="727.6" textLength="97.6" clip-path="url(#terminal-615521717-line-29)">&#160;palette</text>
    </g>
    </g>
</svg>
