<svg class="rich-terminal" viewBox="0 0 1360 782.0" xmlns="http://www.w3.org/2000/svg">
    <!-- Generated with Rich https://www.textualize.io -->
    <style>

    @font-face {
        font-family: "Fira Code";
        src: local("FiraCode-Regular"),
                url("https://cdnjs.cloudflare.com/ajax/libs/firacode/6.2.0/woff2/FiraCode-Regular.woff2") format("woff2"),
                url("https://cdnjs.cloudflare.com/ajax/libs/firacode/6.2.0/woff/FiraCode-Regular.woff") format("woff");
        font-style: normal;
        font-weight: 400;
    }
    @font-face {
        font-family: "Fira Code";
        src: local("FiraCode-Bold"),
                url("https://cdnjs.cloudflare.com/ajax/libs/firacode/6.2.0/woff2/FiraCode-Bold.woff2") format("woff2"),
                url("https://cdnjs.cloudflare.com/ajax/libs/firacode/6.2.0/woff/FiraCode-Bold.woff") format("woff");
        font-style: bold;
        font-weight: 700;
    }

    .terminal-3363752728-matrix {
        font-family: Fira Code, monospace;
        font-size: 20px;
        line-height: 24.4px;
        font-variant-east-asian: full-width;
    }

    .terminal-3363752728-title {
        font-size: 18px;
        font-weight: bold;
        font-family: arial;
    }

    .terminal-3363752728-r1 { fill: #c5c8c6 }
.terminal-3363752728-r2 { fill: #161310;font-weight: bold }
.terminal-3363752728-r3 { fill: #ece5d8;font-weight: bold }
.terminal-3363752728-r4 { fill: #8fc470;font-weight: bold }
.terminal-3363752728-r5 { fill: #a2967f }
.terminal-3363752728-r6 { fill: #ece5d8 }
.terminal-3363752728-r7 { fill: #a1a09f;font-weight: bold }
.terminal-3363752728-r8 { fill: #a2967f;font-weight: bold }
.terminal-3363752728-r9 { fill: #27221a }
.terminal-3363752728-r10 { fill: #a5a4a3;font-weight: bold }
.terminal-3363752728-r11 { fill: #a5a4a3 }
.terminal-3363752728-r12 { fill: #e5a84f;font-weight: bold }
.terminal-3363752728-r13 { fill: #777471 }
.terminal-3363752728-r14 { fill: #a5a3a1 }
.terminal-3363752728-r15 { fill: #4e4940 }
    </style>

    <defs>
    <clipPath id="terminal-3363752728-clip-terminal">
      <rect x="0" y="0" width="1341.0" height="731.0" />
    </clipPath>
    <clipPath id="terminal-3363752728-line-0">
    <rect x="0" y="1.5" width="1342" height="24.65"/>
            </clipPath>
<clipPath id="terminal-3363752728-line-1">
    <rect x="0" y="25.9" width="1342" height="24.65"/>
            </clipPath>
<clipPath id="terminal-3363752728-line-2">
    <rect x="0" y="50.3" width="1342" height="24.65"/>
            </clipPath>
<clipPath id="terminal-3363752728-line-3">
    <rect x="0" y="74.7" width="1342" height="24.65"/>
            </clipPath>
<clipPath id="terminal-3363752728-line-4">
    <rect x="0" y="99.1" width="1342" height="24.65"/>
            </clipPath>
<clipPath id="terminal-3363752728-line-5">
    <rect x="0" y="123.5" width="1342" height="24.65"/>
            </clipPath>
<clipPath id="terminal-3363752728-line-6">
    <rect x="0" y="147.9" width="1342" height="24.65"/>
            </clipPath>
<clipPath id="terminal-3363752728-line-7">
    <rect x="0" y="172.3" width="1342" height="24.65"/>
            </clipPath>
<clipPath id="terminal-3363752728-line-8">
    <rect x="0" y="196.7" width="1342" height="24.65"/>
            </clipPath>
<clipPath id="terminal-3363752728-line-9">
    <rect x="0" y="221.1" width="1342" height="24.65"/>
            </clipPath>
<clipPath id="terminal-3363752728-line-10">
    <rect x="0" y="245.5" width="1342" height="24.65"/>
            </clipPath>
<clipPath id="terminal-3363752728-line-11">
    <rect x="0" y="269.9" width="1342" height="24.65"/>
            </clipPath>
<clipPath id="terminal-3363752728-line-12">
    <rect x="0" y="294.3" width="1342" height="24.65"/>
            </clipPath>
<clipPath id="terminal-3363752728-line-13">
    <rect x="0" y="318.7" width="1342" height="24.65"/>
            </clipPath>
<clipPath id="terminal-3363752728-line-14">
    <rect x="0" y="343.1" width="1342" height="24.65"/>
            </clipPath>
<clipPath id="terminal-3363752728-line-15">
    <rect x="0" y="367.5" width="1342" height="24.65"/>
            </clipPath>
<clipPath id="terminal-3363752728-line-16">
    <rect x="0" y="391.9" width="1342" height="24.65"/>
            </clipPath>
<clipPath id="terminal-3363752728-line-17">
    <rect x="0" y="416.3" width="1342" height="24.65"/>
            </clipPath>
<clipPath id="terminal-3363752728-line-18">
    <rect x="0" y="440.7" width="1342" height="24.65"/>
            </clipPath>
<clipPath id="terminal-3363752728-line-19">
    <rect x="0" y="465.1" width="1342" height="24.65"/>
            </clipPath>
<clipPath id="terminal-3363752728-line-20">
    <rect x="0" y="489.5" width="1342" height="24.65"/>
            </clipPath>
<clipPath id="terminal-3363752728-line-21">
    <rect x="0" y="513.9" width="1342" height="24.65"/>
            </clipPath>
<clipPath id="terminal-3363752728-line-22">
    <rect x="0" y="538.3" width="1342" height="24.65"/>
            </clipPath>
<clipPath id="terminal-3363752728-line-23">
    <rect x="0" y="562.7" width="1342" height="24.65"/>
            </clipPath>
<clipPath id="terminal-3363752728-line-24">
    <rect x="0" y="587.1" width="1342" height="24.65"/>
            </clipPath>
<clipPath id="terminal-3363752728-line-25">
    <rect x="0" y="611.5" width="1342" height="24.65"/>
            </clipPath>
<clipPath id="terminal-3363752728-line-26">
    <rect x="0" y="635.9" width="1342" height="24.65"/>
            </clipPath>
<clipPath id="terminal-3363752728-line-27">
    <rect x="0" y="660.3" width="1342" height="24.65"/>
            </clipPath>
<clipPath id="terminal-3363752728-line-28">
    <rect x="0" y="684.7" width="1342" height="24.65"/>
            </clipPath>
    </defs>

    <rect fill="#292929" stroke="rgba(255,255,255,0.35)" stroke-width="1" x="1" y="1" width="1358" height="780" rx="8"/><text class="terminal-3363752728-title" fill="#c5c8c6" text-anchor="middle" x="679" y="27">kstrl</text>
            <g transform="translate(26,22)">
            <circle cx="0" cy="0" r="7" fill="#ff5f57"/>
            <circle cx="22" cy="0" r="7" fill="#febc2e"/>
            <circle cx="44" cy="0" r="7" fill="#28c840"/>
            </g>
        
    <g transform="translate(9, 41)" clip-path="url(#terminal-3363752728-clip-terminal)">
    <rect fill="#1e1a15" x="0" y="1.5" width="12.2" height="24.65" shape-rendering="crispEdges"/><rect fill="#e5a84f" x="12.2" y="1.5" width="134.2" height="24.65" shape-rendering="crispEdges"/><rect fill="#1e1a15" x="146.4" y="1.5" width="134.2" height="24.65" shape-rendering="crispEdges"/><rect fill="#1e1a15" x="280.6" y="1.5" width="158.6" height="24.65" shape-rendering="crispEdges"/><rect fill="#1e1a15" x="439.2" y="1.5" width="890.6" height="24.65" shape-rendering="crispEdges"/><rect fill="#1e1a15" x="1329.8" y="1.5" width="12.2" height="24.65" shape-rendering="crispEdges"/><rect fill="#161310" x="0" y="25.9" width="1342" height="24.65" shape-rendering="crispEdges"/><rect fill="#161310" x="0" y="50.3" width="24.4" height="24.65" shape-rendering="crispEdges"/><rect fill="#27221a" x="24.4" y="50.3" width="122" height="24.65" shape-rendering="crispEdges"/><rect fill="#27221a" x="146.4" y="50.3" width="12.2" height="24.65" shape-rendering="crispEdges"/><rect fill="#27221a" x="158.6" y="50.3" width="36.6" height="24.65" shape-rendering="crispEdges"/><rect fill="#27221a" x="195.2" y="50.3" width="12.2" height="24.65" shape-rendering="crispEdges"/><rect fill="#161310" x="207.4" y="50.3" width="24.4" height="24.65" shape-rendering="crispEdges"/><rect fill="#27221a" x="231.8" y="50.3" width="97.6" height="24.65" shape-rendering="crispEdges"/><rect fill="#27221a" x="329.4" y="50.3" width="12.2" height="24.65" shape-rendering="crispEdges"/><rect fill="#27221a" x="341.6" y="50.3" width="12.2" height="24.65" shape-rendering="crispEdges"/><rect fill="#161310" x="353.8" y="50.3" width="24.4" height="24.65" shape-rendering="crispEdges"/><rect fill="#27221a" x="378.2" y="50.3" width="73.2" height="24.65" shape-rendering="crispEdges"/><rect fill="#27221a" x="451.4" y="50.3" width="12.2" height="24.65" shape-rendering="crispEdges"/><rect fill="#27221a" x="463.6" y="50.3" width="36.6" height="24.65" shape-rendering="crispEdges"/><rect fill="#27221a" x="500.2" y="50.3" width="12.2" height="24.65" shape-rendering="crispEdges"/><rect fill="#161310" x="512.4" y="50.3" width="24.4" height="24.65" shape-rendering="crispEdges"/><rect fill="#27221a" x="536.8" y="50.3" width="97.6" height="24.65" shape-rendering="crispEdges"/><rect fill="#27221a" x="634.4" y="50.3" width="12.2" height="24.65" shape-rendering="crispEdges"/><rect fill="#27221a" x="646.6" y="50.3" width="12.2" height="24.65" shape-rendering="crispEdges"/><rect fill="#161310" x="658.8" y="50.3" width="24.4" height="24.65" shape-rendering="crispEdges"/><rect fill="#27221a" x="683.2" y="50.3" width="122" height="24.65" shape-rendering="crispEdges"/><rect fill="#27221a" x="805.2" y="50.3" width="12.2" height="24.65" shape-rendering="crispEdges"/><rect fill="#27221a" x="817.4" y="50.3" width="12.2" height="24.65" shape-rendering="crispEdges"/><rect fill="#161310" x="829.6" y="50.3" width="24.4" height="24.65" shape-rendering="crispEdges"/><rect fill="#27221a" x="854" y="50.3" width="109.8" height="24.65" shape-rendering="crispEdges"/><rect fill="#27221a" x="963.8" y="50.3" width="12.2" height="24.65" shape-rendering="crispEdges"/><rect fill="#27221a" x="976" y="50.3" width="12.2" height="24.65" shape-rendering="crispEdges"/><rect fill="#161310" x="988.2" y="50.3" width="24.4" height="24.65" shape-rendering="crispEdges"/><rect fill="#161310" x="1012.6" y="50.3" width="305" height="24.65" shape-rendering="crispEdges"/><rect fill="#161310" x="1317.6" y="50.3" width="24.4" height="24.65" shape-rendering="crispEdges"/><rect fill="#161310" x="0" y="74.7" width="1342" height="24.65" shape-rendering="crispEdges"/><rect fill="#161310" x="0" y="99.1" width="24.4" height="24.65" shape-rendering="crispEdges"/><rect fill="#161310" x="24.4" y="99.1" width="97.6" height="24.65" shape-rendering="crispEdges"/><rect fill="#161310" x="122" y="99.1" width="402.6" height="24.65" shape-rendering="crispEdges"/><rect fill="#161310" x="524.6" y="99.1" width="793" height="24.65" shape-rendering="crispEdges"/><rect fill="#161310" x="1317.6" y="99.1" width="24.4" height="24.65" shape-rendering="crispEdges"/><rect fill="#161310" x="0" y="123.5" width="1342" height="24.65" shape-rendering="crispEdges"/><rect fill="#201d1a" x="0" y="147.9" width="12.2" height="24.65" shape-rendering="crispEdges"/><rect fill="#201d1a" x="12.2" y="147.9" width="85.4" height="24.65" shape-rendering="crispEdges"/><rect fill="#201d1a" x="97.6" y="147.9" width="122" height="24.65" shape-rendering="crispEdges"/><rect fill="#201d1a" x="219.6" y="147.9" width="122" height="24.65" shape-rendering="crispEdges"/><rect fill="#201d1a" x="341.6" y="147.9" width="122" height="24.65" shape-rendering="crispEdges"/><rect fill="#201d1a" x="463.6" y="147.9" width="85.4" height="24.65" shape-rendering="crispEdges"/><rect fill="#201d1a" x="549" y="147.9" width="61" height="24.65" shape-rendering="crispEdges"/><rect fill="#201d1a" x="610" y="147.9" width="719.8" height="24.65" shape-rendering="crispEdges"/><rect fill="#201d1a" x="1329.8" y="147.9" width="12.2" height="24.65" shape-rendering="crispEdges"/><rect fill="#161310" x="0" y="172.3" width="1342" height="24.65" shape-rendering="crispEdges"/><rect fill="#161310" x="0" y="196.7" width="24.4" height="24.65" shape-rendering="crispEdges"/><rect fill="#161310" x="24.4" y="196.7" width="231.8" height="24.65" shape-rendering="crispEdges"/><rect fill="#161310" x="256.2" y="196.7" width="158.6" height="24.65" shape-rendering="crispEdges"/><rect fill="#161310" x="414.8" y="196.7" width="158.6" height="24.65" shape-rendering="crispEdges"/><rect fill="#161310" x="573.4" y="196.7" width="744.2" height="24.65" shape-rendering="crispEdges"/><rect fill="#161310" x="1317.6" y="196.7" width="24.4" height="24.65" shape-rendering="crispEdges"/><rect fill="#161310" x="0" y="221.1" width="1342" height="24.65" shape-rendering="crispEdges"/><rect fill="#161310" x="0" y="245.5" width="24.4" height="24.65" shape-rendering="crispEdges"/><rect fill="#161310" x="24.4" y="245.5" width="646.6" height="24.65" shape-rendering="crispEdges"/><rect fill="#161310" x="671" y="245.5" width="585.6" height="24.65" shape-rendering="crispEdges"/><rect fill="#161310" x="1256.6" y="245.5" width="12.2" height="24.65" shape-rendering="crispEdges"/><rect fill="#161310" x="1268.8" y="245.5" width="24.4" height="24.65" shape-rendering="crispEdges"/><rect fill="#161310" x="1293.2" y="245.5" width="48.8" height="24.65" shape-rendering="crispEdges"/><rect fill="#161310" x="0" y="269.9" width="24.4" height="24.65" shape-rendering="crispEdges"/><rect fill="#161310" x="24.4" y="269.9" width="475.8" height="24.65" shape-rendering="crispEdges"/><rect fill="#161310" x="500.2" y="269.9" width="756.4" height="24.65" shape-rendering="crispEdges"/><rect fill="#161310" x="1256.6" y="269.9" width="12.2" height="24.65" shape-rendering="crispEdges"/><rect fill="#161310" x="1268.8" y="269.9" width="24.4" height="24.65" shape-rendering="crispEdges"/><rect fill="#161310" x="1293.2" y="269.9" width="48.8" height="24.65" shape-rendering="crispEdges"/><rect fill="#161310" x="0" y="294.3" width="24.4" height="24.65" shape-rendering="crispEdges"/><rect fill="#161310" x="24.4" y="294.3" width="622.2" height="24.65" shape-rendering="crispEdges"/><rect fill="#161310" x="646.6" y="294.3" width="610" height="24.65" shape-rendering="crispEdges"/><rect fill="#161310" x="1256.6" y="294.3" width="12.2" height="24.65" shape-rendering="crispEdges"/><rect fill="#161310" x="1268.8" y="294.3" width="24.4" height="24.65" shape-rendering="crispEdges"/><rect fill="#161310" x="1293.2" y="294.3" width="48.8" height="24.65" shape-rendering="crispEdges"/><rect fill="#161310" x="0" y="318.7" width="24.4" height="24.65" shape-rendering="crispEdges"/><rect fill="#161310" x="24.4" y="318.7" width="427" height="24.65" shape-rendering="crispEdges"/><rect fill="#161310" x="451.4" y="318.7" width="805.2" height="24.65" shape-rendering="crispEdges"/><rect fill="#161310" x="1256.6" y="318.7" width="12.2" height="24.65" shape-rendering="crispEdges"/><rect fill="#161310" x="1268.8" y="318.7" width="24.4" height="24.65" shape-rendering="crispEdges"/><rect fill="#161310" x="1293.2" y="318.7" width="48.8" height="24.65" shape-rendering="crispEdges"/><rect fill="#161310" x="0" y="343.1" width="24.4" height="24.65" shape-rendering="crispEdges"/><rect fill="#161310" x="24.4" y="343.1" width="244" height="24.65" shape-rendering="crispEdges"/><rect fill="#161310" x="268.4" y="343.1" width="988.2" height="24.65" shape-rendering="crispEdges"/><rect fill="#161310" x="1256.6" y="343.1" width="12.2" height="24.65" shape-rendering="crispEdges"/><rect fill="#161310" x="1268.8" y="343.1" width="24.4" height="24.65" shape-rendering="crispEdges"/><rect fill="#161310" x="1293.2" y="343.1" width="48.8" height="24.65" shape-rendering="crispEdges"/><rect fill="#161310" x="0" y="367.5" width="24.4" height="24.65" shape-rendering="crispEdges"/><rect fill="#161310" x="24.4" y="367.5" width="195.2" height="24.65" shape-rendering="crispEdges"/><rect fill="#161310" x="219.6" y="367.5" width="1037" height="24.65" shape-rendering="crispEdges"/><rect fill="#161310" x="1256.6" y="367.5" width="12.2" height="24.65" shape-rendering="crispEdges"/><rect fill="#161310" x="1268.8" y="367.5" width="24.4" height="24.65" shape-rendering="crispEdges"/><rect fill="#161310" x="1293.2" y="367.5" width="48.8" height="24.65" shape-rendering="crispEdges"/><rect fill="#161310" x="0" y="391.9" width="24.4" height="24.65" shape-rendering="crispEdges"/><rect fill="#161310" x="24.4" y="391.9" width="610" height="24.65" shape-rendering="crispEdges"/><rect fill="#161310" x="634.4" y="391.9" width="622.2" height="24.65" shape-rendering="crispEdges"/><rect fill="#161310" x="1256.6" y="391.9" width="12.2" height="24.65" shape-rendering="crispEdges"/><rect fill="#161310" x="1268.8" y="391.9" width="24.4" height="24.65" shape-rendering="crispEdges"/><rect fill="#161310" x="1293.2" y="391.9" width="48.8" height="24.65" shape-rendering="crispEdges"/><rect fill="#161310" x="0" y="416.3" width="24.4" height="24.65" shape-rendering="crispEdges"/><rect fill="#161310" x="24.4" y="416.3" width="329.4" height="24.65" shape-rendering="crispEdges"/><rect fill="#161310" x="353.8" y="416.3" width="902.8" height="24.65" shape-rendering="crispEdges"/><rect fill="#161310" x="1256.6" y="416.3" width="12.2" height="24.65" shape-rendering="crispEdges"/><rect fill="#161310" x="1268.8" y="416.3" width="24.4" height="24.65" shape-rendering="crispEdges"/><rect fill="#161310" x="1293.2" y="416.3" width="48.8" height="24.65" shape-rendering="crispEdges"/><rect fill="#161310" x="0" y="440.7" width="24.4" height="24.65" shape-rendering="crispEdges"/><rect fill="#161310" x="24.4" y="440.7" width="1232.2" height="24.65" shape-rendering="crispEdges"/><rect fill="#161310" x="1256.6" y="440.7" width="12.2" height="24.65" shape-rendering="crispEdges"/><rect fill="#161310" x="1268.8" y="440.7" width="24.4" height="24.65" shape-rendering="crispEdges"/><rect fill="#161310" x="1293.2" y="440.7" width="48.8" height="24.65" shape-rendering="crispEdges"/><rect fill="#161310" x="0" y="465.1" width="24.4" height="24.65" shape-rendering="crispEdges"/><rect fill="#161310" x="24.4" y="465.1" width="1232.2" height="24.65" shape-rendering="crispEdges"/><rect fill="#161310" x="1256.6" y="465.1" width="12.2" height="24.65" shape-rendering="crispEdges"/><rect fill="#161310" x="1268.8" y="465.1" width="24.4" height="24.65" shape-rendering="crispEdges"/><rect fill="#161310" x="1293.2" y="465.1" width="48.8" height="24.65" shape-rendering="crispEdges"/><rect fill="#161310" x="0" y="489.5" width="24.4" height="24.65" shape-rendering="crispEdges"/><rect fill="#161310" x="24.4" y="489.5" width="1232.2" height="24.65" shape-rendering="crispEdges"/><rect fill="#161310" x="1256.6" y="489.5" width="12.2" height="24.65" shape-rendering="crispEdges"/><rect fill="#161310" x="1268.8" y="489.5" width="24.4" height="24.65" shape-rendering="crispEdges"/><rect fill="#161310" x="1293.2" y="489.5" width="48.8" height="24.65" shape-rendering="crispEdges"/><rect fill="#161310" x="0" y="513.9" width="24.4" height="24.65" shape-rendering="crispEdges"/><rect fill="#161310" x="24.4" y="513.9" width="1232.2" height="24.65" shape-rendering="crispEdges"/><rect fill="#161310" x="1256.6" y="513.9" width="12.2" height="24.65" shape-rendering="crispEdges"/><rect fill="#161310" x="1268.8" y="513.9" width="24.4" height="24.65" shape-rendering="crispEdges"/><rect fill="#161310" x="1293.2" y="513.9" width="48.8" height="24.65" shape-rendering="crispEdges"/><rect fill="#161310" x="0" y="538.3" width="24.4" height="24.65" shape-rendering="crispEdges"/><rect fill="#161310" x="24.4" y="538.3" width="1232.2" height="24.65" shape-rendering="crispEdges"/><rect fill="#161310" x="1256.6" y="538.3" width="12.2" height="24.65" shape-rendering="crispEdges"/><rect fill="#161310" x="1268.8" y="538.3" width="24.4" height="24.65" shape-rendering="crispEdges"/><rect fill="#161310" x="1293.2" y="538.3" width="48.8" height="24.65" shape-rendering="crispEdges"/><rect fill="#161310" x="0" y="562.7" width="24.4" height="24.65" shape-rendering="crispEdges"/><rect fill="#161310" x="24.4" y="562.7" width="1232.2" height="24.65" shape-rendering="crispEdges"/><rect fill="#161310" x="1256.6" y="562.7" width="12.2" height="24.65" shape-rendering="crispEdges"/><rect fill="#161310" x="1268.8" y="562.7" width="24.4" height="24.65" shape-rendering="crispEdges"/><rect fill="#161310" x="1293.2" y="562.7" width="48.8" height="24.65" shape-rendering="crispEdges"/><rect fill="#161310" x="0" y="587.1" width="24.4" height="24.65" shape-rendering="crispEdges"/><rect fill="#161310" x="24.4" y="587.1" width="1232.2" height="24.65" shape-rendering="crispEdges"/><rect fill="#161310" x="1256.6" y="587.1" width="12.2" height="24.65" shape-rendering="crispEdges"/><rect fill="#161310" x="1268.8" y="587.1" width="24.4" height="24.65" shape-rendering="crispEdges"/><rect fill="#161310" x="1293.2" y="587.1" width="48.8" height="24.65" shape-rendering="crispEdges"/><rect fill="#161310" x="0" y="611.5" width="24.4" height="24.65" shape-rendering="crispEdges"/><rect fill="#161310" x="24.4" y="611.5" width="1232.2" height="24.65" shape-rendering="crispEdges"/><rect fill="#161310" x="1256.6" y="611.5" width="12.2" height="24.65" shape-rendering="crispEdges"/><rect fill="#161310" x="1268.8" y="611.5" width="24.4" height="24.65" shape-rendering="crispEdges"/><rect fill="#161310" x="1293.2" y="611.5" width="48.8" height="24.65" shape-rendering="crispEdges"/><rect fill="#161310" x="0" y="635.9" width="24.4" height="24.65" shape-rendering="crispEdges"/><rect fill="#161310" x="24.4" y="635.9" width="1232.2" height="24.65" shape-rendering="crispEdges"/><rect fill="#161310" x="1256.6" y="635.9" width="12.2" height="24.65" shape-rendering="crispEdges"/><rect fill="#161310" x="1268.8" y="635.9" width="24.4" height="24.65" shape-rendering="crispEdges"/><rect fill="#161310" x="1293.2" y="635.9" width="48.8" height="24.65" shape-rendering="crispEdges"/><rect fill="#161310" x="0" y="660.3" width="24.4" height="24.65" shape-rendering="crispEdges"/><rect fill="#161310" x="24.4" y="660.3" width="1232.2" height="24.65" shape-rendering="crispEdges"/><rect fill="#161310" x="1256.6" y="660.3" width="12.2" height="24.65" shape-rendering="crispEdges"/><rect fill="#161310" x="1268.8" y="660.3" width="24.4" height="24.65" shape-rendering="crispEdges"/><rect fill="#161310" x="1293.2" y="660.3" width="48.8" height="24.65" shape-rendering="crispEdges"/><rect fill="#1e1a15" x="0" y="684.7" width="24.4" height="24.65" shape-rendering="crispEdges"/><rect fill="#1e1a15" x="24.4" y="684.7" width="146.4" height="24.65" shape-rendering="crispEdges"/><rect fill="#1e1a15" x="170.8" y="684.7" width="280.6" height="24.65" shape-rendering="crispEdges"/><rect fill="#1e1a15" x="451.4" y="684.7" width="866.2" height="24.65" shape-rendering="crispEdges"/><rect fill="#1e1a15" x="1317.6" y="684.7" width="24.4" height="24.65" shape-rendering="crispEdges"/><rect fill="#27221a" x="0" y="709.1" width="61" height="24.65" shape-rendering="crispEdges"/><rect fill="#27221a" x="61" y="709.1" width="61" height="24.65" shape-rendering="crispEdges"/><rect fill="#27221a" x="122" y="709.1" width="36.6" height="24.65" shape-rendering="crispEdges"/><rect fill="#27221a" x="158.6" y="709.1" width="85.4" height="24.65" shape-rendering="crispEdges"/><rect fill="#27221a" x="244" y="709.1" width="36.6" height="24.65" shape-rendering="crispEdges"/><rect fill="#27221a" x="280.6" y="709.1" width="85.4" height="24.65" shape-rendering="crispEdges"/><rect fill="#27221a" x="366" y="709.1" width="829.6" height="24.65" shape-rendering="crispEdges"/><rect fill="#27221a" x="1195.6" y="709.1" width="12.2" height="24.65" shape-rendering="crispEdges"/><rect fill="#27221a" x="1207.8" y="709.1" width="24.4" height="24.65" shape-rendering="crispEdges"/><rect fill="#27221a" x="1232.2" y="709.1" width="97.6" height="24.65" shape-rendering="crispEdges"/><rect fill="#27221a" x="1329.8" y="709.1" width="12.2" height="24.65" shape-rendering="crispEdges"/>
    <g class="terminal-3363752728-matrix">
    <text class="terminal-3363752728-r2" x="12.2" y="20" textLength="134.2" clip-path="url(#terminal-3363752728-line-0)">&#160;auth-core&#160;</text><text class="terminal-3363752728-r3" x="146.4" y="20" textLength="134.2" clip-path="url(#terminal-3363752728-line-0)">&#160;&#160;Auth&#160;Core</text><text class="terminal-3363752728-r4" x="280.6" y="20" textLength="158.6" clip-path="url(#terminal-3363752728-line-0)">&#160;&#160;✓&#160;completed</text><text class="terminal-3363752728-r1" x="1342" y="20" textLength="12.2" clip-path="url(#terminal-3363752728-line-0)">
</text><text class="terminal-3363752728-r1" x="1342" y="44.4" textLength="12.2" clip-path="url(#terminal-3363752728-line-1)">
</text><text class="terminal-3363752728-r3" x="24.4" y="68.8" textLength="122" clip-path="url(#terminal-3363752728-line-2)">&#160;engineer&#160;</text><text class="terminal-3363752728-r4" x="146.4" y="68.8" textLength="12.2" clip-path="url(#terminal-3363752728-line-2)">✓</text><text class="terminal-3363752728-r5" x="158.6" y="68.8" textLength="36.6" clip-path="url(#terminal-3363752728-line-2)">&#160;5s</text><text class="terminal-3363752728-r3" x="231.8" y="68.8" textLength="97.6" clip-path="url(#terminal-3363752728-line-2)">&#160;verify&#160;</text><text class="terminal-3363752728-r4" x="329.4" y="68.8" textLength="12.2" clip-path="url(#terminal-3363752728-line-2)">✓</text><text class="terminal-3363752728-r3" x="378.2" y="68.8" textLength="73.2" clip-path="url(#terminal-3363752728-line-2)">&#160;diff&#160;</text><text class="terminal-3363752728-r4" x="451.4" y="68.8" textLength="12.2" clip-path="url(#terminal-3363752728-line-2)">✓</text><text class="terminal-3363752728-r5" x="463.6" y="68.8" textLength="36.6" clip-path="url(#terminal-3363752728-line-2)">&#160;0s</text><text class="terminal-3363752728-r3" x="536.8" y="68.8" textLength="97.6" clip-path="url(#terminal-3363752728-line-2)">&#160;review&#160;</text><text class="terminal-3363752728-r4" x="634.4" y="68.8" textLength="12.2" clip-path="url(#terminal-3363752728-line-2)">✓</text><text class="terminal-3363752728-r3" x="683.2" y="68.8" textLength="122" clip-path="url(#terminal-3363752728-line-2)">&#160;security&#160;</text><text class="terminal-3363752728-r4" x="805.2" y="68.8" textLength="12.2" clip-path="url(#terminal-3363752728-line-2)">✓</text><text class="terminal-3363752728-r3" x="854" y="68.8" textLength="109.8" clip-path="url(#terminal-3363752728-line-2)">&#160;distill&#160;</text><text class="terminal-3363752728-r4" x="963.8" y="68.8" textLength="12.2" clip-path="url(#terminal-3363752728-line-2)">✓</text><text class="terminal-3363752728-r1" x="1342" y="68.8" textLength="12.2" clip-path="url(#terminal-3363752728-line-2)">
</text><text class="terminal-3363752728-r1" x="1342" y="93.2" textLength="12.2" clip-path="url(#terminal-3363752728-line-3)">
</text><text class="terminal-3363752728-r7" x="24.4" y="117.6" textLength="97.6" clip-path="url(#terminal-3363752728-line-4)">findings</text><text class="terminal-3363752728-r8" x="122" y="117.6" textLength="402.6" clip-path="url(#terminal-3363752728-line-4)">&#160;·&#160;3&#160;bookkeeping&#160;record(s)&#160;hidden</text><text class="terminal-3363752728-r1" x="1342" y="117.6" textLength="12.2" clip-path="url(#terminal-3363752728-line-4)">
</text><text class="terminal-3363752728-r9" x="0" y="142" textLength="1342" clip-path="url(#terminal-3363752728-line-5)">──────────────────────────────────────────────────────────────────────────────────────────────────────────────</text><text class="terminal-3363752728-r1" x="1342" y="142" textLength="12.2" clip-path="url(#terminal-3363752728-line-5)">
</text><text class="terminal-3363752728-r10" x="12.2" y="166.4" textLength="85.4" clip-path="url(#terminal-3363752728-line-6)">&#160;phase&#160;</text><text class="terminal-3363752728-r10" x="97.6" y="166.4" textLength="122" clip-path="url(#terminal-3363752728-line-6)">&#160;severity&#160;</text><text class="terminal-3363752728-r10" x="219.6" y="166.4" textLength="122" clip-path="url(#terminal-3363752728-line-6)">&#160;category&#160;</text><text class="terminal-3363752728-r10" x="341.6" y="166.4" textLength="122" clip-path="url(#terminal-3363752728-line-6)">&#160;location&#160;</text><text class="terminal-3363752728-r10" x="463.6" y="166.4" textLength="85.4" clip-path="url(#terminal-3363752728-line-6)">&#160;model&#160;</text><text class="terminal-3363752728-r10" x="549" y="166.4" textLength="61" clip-path="url(#terminal-3363752728-line-6)">&#160;try&#160;</text><text class="terminal-3363752728-r1" x="1342" y="166.4" textLength="12.2" clip-path="url(#terminal-3363752728-line-6)">
</text><text class="terminal-3363752728-r1" x="1342" y="190.8" textLength="12.2" clip-path="url(#terminal-3363752728-line-7)">
</text><text class="terminal-3363752728-r7" x="24.4" y="215.2" textLength="231.8" clip-path="url(#terminal-3363752728-line-8)">engineer&#160;transcript</text><text class="terminal-3363752728-r12" x="256.2" y="215.2" textLength="158.6" clip-path="url(#terminal-3363752728-line-8)">&#160;&#160;●&#160;following</text><text class="terminal-3363752728-r8" x="414.8" y="215.2" textLength="158.6" clip-path="url(#terminal-3363752728-line-8)">&#160;&#160;(f&#160;toggles)</text><text class="terminal-3363752728-r1" x="1342" y="215.2" textLength="12.2" clip-path="url(#terminal-3363752728-line-8)">
</text><text class="terminal-3363752728-r9" x="0" y="239.6" textLength="1342" clip-path="url(#terminal-3363752728-line-9)">──────────────────────────────────────────────────────────────────────────────────────────────────────────────</text><text class="terminal-3363752728-r1" x="1342" y="239.6" textLength="12.2" clip-path="url(#terminal-3363752728-line-9)">
</text><text class="terminal-3363752728-r6" x="24.4" y="264" textLength="646.6" clip-path="url(#terminal-3363752728-line-10)">Reading&#160;PRD:&#160;scripts/kstrl/feature/component/prd.json</text><text class="terminal-3363752728-r1" x="1342" y="264" textLength="12.2" clip-path="url(#terminal-3363752728-line-10)">
</text><text class="terminal-3363752728-r6" x="24.4" y="288.4" textLength="475.8" clip-path="url(#terminal-3363752728-line-11)">Analyzing&#160;module&#160;map&#160;and&#160;conventions...</text><text class="terminal-3363752728-r1" x="1342" y="288.4" textLength="12.2" clip-path="url(#terminal-3363752728-line-11)">
</text><text class="terminal-3363752728-r6" x="24.4" y="312.8" textLength="622.2" clip-path="url(#terminal-3363752728-line-12)">Editing&#160;src/auth/handler.py:&#160;add&#160;session&#160;validation</text><text class="terminal-3363752728-r1" x="1342" y="312.8" textLength="12.2" clip-path="url(#terminal-3363752728-line-12)">
</text><text class="terminal-3363752728-r6" x="24.4" y="337.2" textLength="427" clip-path="url(#terminal-3363752728-line-13)">Running:&#160;uv&#160;run&#160;pytest&#160;tests/&#160;-x&#160;-q</text><text class="terminal-3363752728-r1" x="1342" y="337.2" textLength="12.2" clip-path="url(#terminal-3363752728-line-13)">
</text><text class="terminal-3363752728-r6" x="24.4" y="361.6" textLength="244" clip-path="url(#terminal-3363752728-line-14)">&#160;&#160;12&#160;passed&#160;in&#160;3.41s</text><text class="terminal-3363752728-r1" x="1342" y="361.6" textLength="12.2" clip-path="url(#terminal-3363752728-line-14)">
</text><text class="terminal-3363752728-r6" x="24.4" y="386" textLength="195.2" clip-path="url(#terminal-3363752728-line-15)">##&#160;Self-Critique</text><text class="terminal-3363752728-r1" x="1342" y="386" textLength="12.2" clip-path="url(#terminal-3363752728-line-15)">
</text><text class="terminal-3363752728-r6" x="24.4" y="410.4" textLength="610" clip-path="url(#terminal-3363752728-line-16)">-&#160;Session&#160;TTL&#160;assumed&#160;24h;&#160;PRD&#160;does&#160;not&#160;state&#160;one.</text><text class="terminal-3363752728-r1" x="1342" y="410.4" textLength="12.2" clip-path="url(#terminal-3363752728-line-16)">
</text><text class="terminal-3363752728-r6" x="24.4" y="434.8" textLength="329.4" clip-path="url(#terminal-3363752728-line-17)">&lt;promise&gt;COMPLETE&lt;/promise&gt;</text><text class="terminal-3363752728-r1" x="1342" y="434.8" textLength="12.2" clip-path="url(#terminal-3363752728-line-17)">
</text><text class="terminal-3363752728-r1" x="1342" y="459.2" textLength="12.2" clip-path="url(#terminal-3363752728-line-18)">
</text><text class="terminal-3363752728-r1" x="1342" y="483.6" textLength="12.2" clip-path="url(#terminal-3363752728-line-19)">
</text><text class="terminal-3363752728-r1" x="1342" y="508" textLength="12.2" clip-path="url(#terminal-3363752728-line-20)">
</text><text class="terminal-3363752728-r1" x="1342" y="532.4" textLength="12.2" clip-path="url(#terminal-3363752728-line-21)">
</text><text class="terminal-3363752728-r1" x="1342" y="556.8" textLength="12.2" clip-path="url(#terminal-3363752728-line-22)">
</text><text class="terminal-3363752728-r1" x="1342" y="581.2" textLength="12.2" clip-path="url(#terminal-3363752728-line-23)">
</text><text class="terminal-3363752728-r1" x="1342" y="605.6" textLength="12.2" clip-path="url(#terminal-3363752728-line-24)">
</text><text class="terminal-3363752728-r1" x="1342" y="630" textLength="12.2" clip-path="url(#terminal-3363752728-line-25)">
</text><text class="terminal-3363752728-r1" x="1342" y="654.4" textLength="12.2" clip-path="url(#terminal-3363752728-line-26)">
</text><text class="terminal-3363752728-r1" x="1342" y="678.8" textLength="12.2" clip-path="url(#terminal-3363752728-line-27)">
</text><text class="terminal-3363752728-r13" x="24.4" y="703.2" textLength="146.4" clip-path="url(#terminal-3363752728-line-28)">&#160;&#160;&#160;&#160;branch&#160;&#160;</text><text class="terminal-3363752728-r14" x="170.8" y="703.2" textLength="280.6" clip-path="url(#terminal-3363752728-line-28)">kstrl/factory/auth-core</text><text class="terminal-3363752728-r1" x="1342" y="703.2" textLength="12.2" clip-path="url(#terminal-3363752728-line-28)">
</text><text class="terminal-3363752728-r12" x="0" y="727.6" textLength="61" clip-path="url(#terminal-3363752728-line-29)">&#160;esc&#160;</text><text class="terminal-3363752728-r6" x="61" y="727.6" textLength="61" clip-path="url(#terminal-3363752728-line-29)">Back&#160;</text><text class="terminal-3363752728-r12" x="122" y="727.6" textLength="36.6" clip-path="url(#terminal-3363752728-line-29)">&#160;f&#160;</text><text class="terminal-3363752728-r6" x="158.6" y="727.6" textLength="85.4" clip-path="url(#terminal-3363752728-line-29)">Follow&#160;</text><text class="terminal-3363752728-r12" x="244" y="727.6" textLength="36.6" clip-path="url(#terminal-3363752728-line-29)">&#160;q&#160;</text><text class="terminal-3363752728-r6" x="280.6" y="727.6" textLength="85.4" clip-path="url(#terminal-3363752728-line-29)">Detach&#160;</text><text class="terminal-3363752728-r15" x="1195.6" y="727.6" textLength="12.2" clip-path="url(#terminal-3363752728-line-29)">▏</text><text class="terminal-3363752728-r12" x="1207.8" y="727.6" textLength="24.4" clip-path="url(#terminal-3363752728-line-29)">^p</text><text class="terminal-3363752728-r6" x="1232.2" y="727.6" textLength="97.6" clip-path="url(#terminal-3363752728-line-29)">&#160;palette</text>
    </g>
    </g>
</svg>
