<svg class="rich-terminal" viewBox="0 0 1482 928.4" xmlns="http://www.w3.org/2000/svg">
    <!-- Generated with Rich https://www.textualize.io -->
    <style>

    @font-face {
        font-family: "Fira Code";
        src: local("FiraCode-Regular"),
                url("https://cdnjs.cloudflare.com/ajax/libs/firacode/6.2.0/woff2/FiraCode-Regular.woff2") format("woff2"),
                url("https://cdnjs.cloudflare.com/ajax/libs/firacode/6.2.0/woff/FiraCode-Regular.woff") format("woff");
        font-style: normal;
        font-weight: 400;
    }
    @font-face {
        font-family: "Fira Code";
        src: local("FiraCode-Bold"),
                url("https://cdnjs.cloudflare.com/ajax/libs/firacode/6.2.0/woff2/FiraCode-Bold.woff2") format("woff2"),
                url("https://cdnjs.cloudflare.com/ajax/libs/firacode/6.2.0/woff/FiraCode-Bold.woff") format("woff");
        font-style: bold;
        font-weight: 700;
    }

    .terminal-1956170498-matrix {
        font-family: Fira Code, monospace;
        font-size: 20px;
        line-height: 24.4px;
        font-variant-east-asian: full-width;
    }

    .terminal-1956170498-title {
        font-size: 18px;
        font-weight: bold;
        font-family: arial;
    }

    .terminal-1956170498-r1 { fill: #c5c8c6 }
.terminal-1956170498-r2 { fill: #161310;font-weight: bold }
.terminal-1956170498-r3 { fill: #ece5d8 }
.terminal-1956170498-r4 { fill: #ece5d8;font-weight: bold }
.terminal-1956170498-r5 { fill: #a2967f }
.terminal-1956170498-r6 { fill: #8fc470;font-weight: bold }
.terminal-1956170498-r7 { fill: #d9b036 }
.terminal-1956170498-r8 { fill: #a2967f;font-weight: bold }
.terminal-1956170498-r9 { fill: #27221a }
.terminal-1956170498-r10 { fill: #a1a09f;font-weight: bold }
.terminal-1956170498-r11 { fill: #e5a84f;font-weight: bold }
.terminal-1956170498-r12 { fill: #4e4940 }
    </style>

    <defs>
    <clipPath id="terminal-1956170498-clip-terminal">
      <rect x="0" y="0" width="1463.0" height="877.4" />
    </clipPath>
    <clipPath id="terminal-1956170498-line-0">
    <rect x="0" y="1.5" width="1464" height="24.65"/>
            </clipPath>
<clipPath id="terminal-1956170498-line-1">
    <rect x="0" y="25.9" width="1464" height="24.65"/>
            </clipPath>
<clipPath id="terminal-1956170498-line-2">
    <rect x="0" y="50.3" width="1464" height="24.65"/>
            </clipPath>
<clipPath id="terminal-1956170498-line-3">
    <rect x="0" y="74.7" width="1464" height="24.65"/>
            </clipPath>
<clipPath id="terminal-1956170498-line-4">
    <rect x="0" y="99.1" width="1464" height="24.65"/>
            </clipPath>
<clipPath id="terminal-1956170498-line-5">
    <rect x="0" y="123.5" width="1464" height="24.65"/>
            </clipPath>
<clipPath id="terminal-1956170498-line-6">
    <rect x="0" y="147.9" width="1464" height="24.65"/>
            </clipPath>
<clipPath id="terminal-1956170498-line-7">
    <rect x="0" y="172.3" width="1464" height="24.65"/>
            </clipPath>
<clipPath id="terminal-1956170498-line-8">
    <rect x="0" y="196.7" width="1464" height="24.65"/>
            </clipPath>
<clipPath id="terminal-1956170498-line-9">
    <rect x="0" y="221.1" width="1464" height="24.65"/>
            </clipPath>
<clipPath id="terminal-1956170498-line-10">
    <rect x="0" y="245.5" width="1464" height="24.65"/>
            </clipPath>
<clipPath id="terminal-1956170498-line-11">
    <rect x="0" y="269.9" width="1464" height="24.65"/>
            </clipPath>
<clipPath id="terminal-1956170498-line-12">
    <rect x="0" y="294.3" width="1464" height="24.65"/>
            </clipPath>
<clipPath id="terminal-1956170498-line-13">
    <rect x="0" y="318.7" width="1464" height="24.65"/>
            </clipPath>
<clipPath id="terminal-1956170498-line-14">
    <rect x="0" y="343.1" width="1464" height="24.65"/>
            </clipPath>
<clipPath id="terminal-1956170498-line-15">
    <rect x="0" y="367.5" width="1464" height="24.65"/>
            </clipPath>
<clipPath id="terminal-1956170498-line-16">
    <rect x="0" y="391.9" width="1464" height="24.65"/>
            </clipPath>
<clipPath id="terminal-1956170498-line-17">
    <rect x="0" y="416.3" width="1464" height="24.65"/>
            </clipPath>
<clipPath id="terminal-1956170498-line-18">
    <rect x="0" y="440.7" width="1464" height="24.65"/>
            </clipPath>
<clipPath id="terminal-1956170498-line-19">
    <rect x="0" y="465.1" width="1464" height="24.65"/>
            </clipPath>
<clipPath id="terminal-1956170498-line-20">
    <rect x="0" y="489.5" width="1464" height="24.65"/>
            </clipPath>
<clipPath id="terminal-1956170498-line-21">
    <rect x="0" y="513.9" width="1464" height="24.65"/>
            </clipPath>
<clipPath id="terminal-1956170498-line-22">
    <rect x="0" y="538.3" width="1464" height="24.65"/>
            </clipPath>
<clipPath id="terminal-1956170498-line-23">
    <rect x="0" y="562.7" width="1464" height="24.65"/>
            </clipPath>
<clipPath id="terminal-1956170498-line-24">
    <rect x="0" y="587.1" width="1464" height="24.65"/>
            </clipPath>
<clipPath id="terminal-1956170498-line-25">
    <rect x="0" y="611.5" width="1464" height="24.65"/>
            </clipPath>
<clipPath id="terminal-1956170498-line-26">
    <rect x="0" y="635.9" width="1464" height="24.65"/>
            </clipPath>
<clipPath id="terminal-1956170498-line-27">
    <rect x="0" y="660.3" width="1464" height="24.65"/>
            </clipPath>
<clipPath id="terminal-1956170498-line-28">
    <rect x="0" y="684.7" width="1464" height="24.65"/>
            </clipPath>
<clipPath id="terminal-1956170498-line-29">
    <rect x="0" y="709.1" width="1464" height="24.65"/>
            </clipPath>
<clipPath id="terminal-1956170498-line-30">
    <rect x="0" y="733.5" width="1464" height="24.65"/>
            </clipPath>
<clipPath id="terminal-1956170498-line-31">
    <rect x="0" y="757.9" width="1464" height="24.65"/>
            </clipPath>
<clipPath id="terminal-1956170498-line-32">
    <rect x="0" y="782.3" width="1464" height="24.65"/>
            </clipPath>
<clipPath id="terminal-1956170498-line-33">
    <rect x="0" y="806.7" width="1464" height="24.65"/>
            </clipPath>
<clipPath id="terminal-1956170498-line-34">
    <rect x="0" y="831.1" width="1464" height="24.65"/>
            </clipPath>
    </defs>

    <rect fill="#292929" stroke="rgba(255,255,255,0.35)" stroke-width="1" x="1" y="1" width="1480" height="926.4" rx="8"/><text class="terminal-1956170498-title" fill="#c5c8c6" text-anchor="middle" x="740" y="27">kstrl</text>
            <g transform="translate(26,22)">
            <circle cx="0" cy="0" r="7" fill="#ff5f57"/>
            <circle cx="22" cy="0" r="7" fill="#febc2e"/>
            <circle cx="44" cy="0" r="7" fill="#28c840"/>
            </g>
        
    <g transform="translate(9, 41)" clip-path="url(#terminal-1956170498-clip-terminal)">
    <rect fill="#161310" x="0" y="1.5" width="12.2" height="24.65" shape-rendering="crispEdges"/><rect fill="#e5a84f" x="12.2" y="1.5" width="109.8" height="24.65" shape-rendering="crispEdges"/><rect fill="#161310" x="122" y="1.5" width="24.4" height="24.65" shape-rendering="crispEdges"/><rect fill="#161310" x="146.4" y="1.5" width="134.2" height="24.65" shape-rendering="crispEdges"/><rect fill="#161310" x="280.6" y="1.5" width="170.8" height="24.65" shape-rendering="crispEdges"/><rect fill="#161310" x="451.4" y="1.5" width="1000.4" height="24.65" shape-rendering="crispEdges"/><rect fill="#161310" x="1451.8" y="1.5" width="12.2" height="24.65" shape-rendering="crispEdges"/><rect fill="#161310" x="0" y="25.9" width="12.2" height="24.65" shape-rendering="crispEdges"/><rect fill="#161310" x="12.2" y="25.9" width="109.8" height="24.65" shape-rendering="crispEdges"/><rect fill="#161310" x="122" y="25.9" width="73.2" height="24.65" shape-rendering="crispEdges"/><rect fill="#161310" x="195.2" y="25.9" width="48.8" height="24.65" shape-rendering="crispEdges"/><rect fill="#161310" x="244" y="25.9" width="36.6" height="24.65" shape-rendering="crispEdges"/><rect fill="#161310" x="280.6" y="25.9" width="280.6" height="24.65" shape-rendering="crispEdges"/><rect fill="#161310" x="561.2" y="25.9" width="890.6" height="24.65" shape-rendering="crispEdges"/><rect fill="#161310" x="1451.8" y="25.9" width="12.2" height="24.65" shape-rendering="crispEdges"/><rect fill="#161310" x="0" y="50.3" width="12.2" height="24.65" shape-rendering="crispEdges"/><rect fill="#161310" x="12.2" y="50.3" width="48.8" height="24.65" shape-rendering="crispEdges"/><rect fill="#161310" x="61" y="50.3" width="1390.8" height="24.65" shape-rendering="crispEdges"/><rect fill="#161310" x="1451.8" y="50.3" width="12.2" height="24.65" shape-rendering="crispEdges"/><rect fill="#161310" x="0" y="74.7" width="1464" height="24.65" shape-rendering="crispEdges"/><rect fill="#302b23" x="0" y="99.1" width="36.6" height="24.65" shape-rendering="crispEdges"/><rect fill="#302b23" x="36.6" y="99.1" width="97.6" height="24.65" shape-rendering="crispEdges"/><rect fill="#302b23" x="134.2" y="99.1" width="134.2" height="24.65" shape-rendering="crispEdges"/><rect fill="#302b23" x="268.4" y="99.1" width="61" height="24.65" shape-rendering="crispEdges"/><rect fill="#302b23" x="329.4" y="99.1" width="85.4" height="24.65" shape-rendering="crispEdges"/><rect fill="#302b23" x="414.8" y="99.1" width="61" height="24.65" shape-rendering="crispEdges"/><rect fill="#302b23" x="475.8" y="99.1" width="73.2" height="24.65" shape-rendering="crispEdges"/><rect fill="#2c2720" x="549" y="99.1" width="915" height="24.65" shape-rendering="crispEdges"/><rect fill="#e5a84f" x="0" y="123.5" width="36.6" height="24.65" shape-rendering="crispEdges"/><rect fill="#e5a84f" x="36.6" y="123.5" width="97.6" height="24.65" shape-rendering="crispEdges"/><rect fill="#e5a84f" x="134.2" y="123.5" width="134.2" height="24.65" shape-rendering="crispEdges"/><rect fill="#e5a84f" x="268.4" y="123.5" width="61" height="24.65" shape-rendering="crispEdges"/><rect fill="#e5a84f" x="329.4" y="123.5" width="85.4" height="24.65" shape-rendering="crispEdges"/><rect fill="#e5a84f" x="414.8" y="123.5" width="61" height="24.65" shape-rendering="crispEdges"/><rect fill="#e5a84f" x="475.8" y="123.5" width="73.2" height="24.65" shape-rendering="crispEdges"/><rect fill="#201d1a" x="549" y="123.5" width="915" height="24.65" shape-rendering="crispEdges"/><rect fill="#201d1a" x="0" y="147.9" width="12.2" height="24.65" shape-rendering="crispEdges"/><rect fill="#201d1a" x="12.2" y="147.9" width="12.2" height="24.65" shape-rendering="crispEdges"/><rect fill="#201d1a" x="24.4" y="147.9" width="12.2" height="24.65" shape-rendering="crispEdges"/><rect fill="#201d1a" x="36.6" y="147.9" width="12.2" height="24.65" shape-rendering="crispEdges"/><rect fill="#201d1a" x="48.8" y="147.9" width="73.2" height="24.65" shape-rendering="crispEdges"/><rect fill="#201d1a" x="122" y="147.9" width="12.2" height="24.65" shape-rendering="crispEdges"/><rect fill="#201d1a" x="134.2" y="147.9" width="12.2" height="24.65" shape-rendering="crispEdges"/><rect fill="#201d1a" x="146.4" y="147.9" width="85.4" height="24.65" shape-rendering="crispEdges"/><rect fill="#201d1a" x="231.8" y="147.9" width="36.6" height="24.65" shape-rendering="crispEdges"/><rect fill="#201d1a" x="268.4" y="147.9" width="12.2" height="24.65" shape-rendering="crispEdges"/><rect fill="#201d1a" x="280.6" y="147.9" width="36.6" height="24.65" shape-rendering="crispEdges"/><rect fill="#201d1a" x="317.2" y="147.9" width="12.2" height="24.65" shape-rendering="crispEdges"/><rect fill="#201d1a" x="329.4" y="147.9" width="85.4" height="24.65" shape-rendering="crispEdges"/><rect fill="#201d1a" x="414.8" y="147.9" width="12.2" height="24.65" shape-rendering="crispEdges"/><rect fill="#201d1a" x="427" y="147.9" width="36.6" height="24.65" shape-rendering="crispEdges"/><rect fill="#201d1a" x="463.6" y="147.9" width="12.2" height="24.65" shape-rendering="crispEdges"/><rect fill="#201d1a" x="475.8" y="147.9" width="12.2" height="24.65" shape-rendering="crispEdges"/><rect fill="#201d1a" x="488" y="147.9" width="48.8" height="24.65" shape-rendering="crispEdges"/><rect fill="#201d1a" x="536.8" y="147.9" width="12.2" height="24.65" shape-rendering="crispEdges"/><rect fill="#201d1a" x="549" y="147.9" width="915" height="24.65" shape-rendering="crispEdges"/><rect fill="#201d1a" x="0" y="172.3" width="12.2" height="24.65" shape-rendering="crispEdges"/><rect fill="#201d1a" x="12.2" y="172.3" width="12.2" height="24.65" shape-rendering="crispEdges"/><rect fill="#201d1a" x="24.4" y="172.3" width="12.2" height="24.65" shape-rendering="crispEdges"/><rect fill="#201d1a" x="36.6" y="172.3" width="12.2" height="24.65" shape-rendering="crispEdges"/><rect fill="#201d1a" x="48.8" y="172.3" width="73.2" height="24.65" shape-rendering="crispEdges"/><rect fill="#201d1a" x="122" y="172.3" width="12.2" height="24.65" shape-rendering="crispEdges"/><rect fill="#201d1a" x="134.2" y="172.3" width="12.2" height="24.65" shape-rendering="crispEdges"/><rect fill="#201d1a" x="146.4" y="172.3" width="85.4" height="24.65" shape-rendering="crispEdges"/><rect fill="#201d1a" x="231.8" y="172.3" width="36.6" height="24.65" shape-rendering="crispEdges"/><rect fill="#201d1a" x="268.4" y="172.3" width="12.2" height="24.65" shape-rendering="crispEdges"/><rect fill="#201d1a" x="280.6" y="172.3" width="36.6" height="24.65" shape-rendering="crispEdges"/><rect fill="#201d1a" x="317.2" y="172.3" width="12.2" height="24.65" shape-rendering="crispEdges"/><rect fill="#201d1a" x="329.4" y="172.3" width="85.4" height="24.65" shape-rendering="crispEdges"/><rect fill="#201d1a" x="414.8" y="172.3" width="61" height="24.65" shape-rendering="crispEdges"/><rect fill="#201d1a" x="475.8" y="172.3" width="73.2" height="24.65" shape-rendering="crispEdges"/><rect fill="#201d1a" x="549" y="172.3" width="915" height="24.65" shape-rendering="crispEdges"/><rect fill="#161310" x="0" y="196.7" width="12.2" height="24.65" shape-rendering="crispEdges"/><rect fill="#161310" x="12.2" y="196.7" width="97.6" height="24.65" shape-rendering="crispEdges"/><rect fill="#161310" x="109.8" y="196.7" width="1342" height="24.65" shape-rendering="crispEdges"/><rect fill="#161310" x="1451.8" y="196.7" width="12.2" height="24.65" shape-rendering="crispEdges"/><rect fill="#161310" x="0" y="221.1" width="1464" height="24.65" shape-rendering="crispEdges"/><rect fill="#161310" x="0" y="245.5" width="12.2" height="24.65" shape-rendering="crispEdges"/><rect fill="#161310" x="12.2" y="245.5" width="85.4" height="24.65" shape-rendering="crispEdges"/><rect fill="#161310" x="97.6" y="245.5" width="488" height="24.65" shape-rendering="crispEdges"/><rect fill="#161310" x="585.6" y="245.5" width="866.2" height="24.65" shape-rendering="crispEdges"/><rect fill="#161310" x="1451.8" y="245.5" width="12.2" height="24.65" shape-rendering="crispEdges"/><rect fill="#161310" x="0" y="269.9" width="12.2" height="24.65" shape-rendering="crispEdges"/><rect fill="#161310" x="12.2" y="269.9" width="109.8" height="24.65" shape-rendering="crispEdges"/><rect fill="#161310" x="122" y="269.9" width="500.2" height="24.65" shape-rendering="crispEdges"/><rect fill="#161310" x="622.2" y="269.9" width="829.6" height="24.65" shape-rendering="crispEdges"/><rect fill="#161310" x="1451.8" y="269.9" width="12.2" height="24.65" shape-rendering="crispEdges"/><rect fill="#161310" x="0" y="294.3" width="12.2" height="24.65" shape-rendering="crispEdges"/><rect fill="#161310" x="12.2" y="294.3" width="61" height="24.65" shape-rendering="crispEdges"/><rect fill="#161310" x="73.2" y="294.3" width="536.8" height="24.65" shape-rendering="crispEdges"/><rect fill="#161310" x="610" y="294.3" width="841.8" height="24.65" shape-rendering="crispEdges"/><rect fill="#161310" x="1451.8" y="294.3" width="12.2" height="24.65" shape-rendering="crispEdges"/><rect fill="#161310" x="0" y="318.7" width="12.2" height="24.65" shape-rendering="crispEdges"/><rect fill="#161310" x="12.2" y="318.7" width="109.8" height="24.65" shape-rendering="crispEdges"/><rect fill="#161310" x="122" y="318.7" width="646.6" height="24.65" shape-rendering="crispEdges"/><rect fill="#161310" x="768.6" y="318.7" width="683.2" height="24.65" shape-rendering="crispEdges"/><rect fill="#161310" x="1451.8" y="318.7" width="12.2" height="24.65" shape-rendering="crispEdges"/><rect fill="#161310" x="0" y="343.1" width="12.2" height="24.65" shape-rendering="crispEdges"/><rect fill="#161310" x="12.2" y="343.1" width="73.2" height="24.65" shape-rendering="crispEdges"/><rect fill="#161310" x="85.4" y="343.1" width="573.4" height="24.65" shape-rendering="crispEdges"/><rect fill="#161310" x="658.8" y="343.1" width="793" height="24.65" shape-rendering="crispEdges"/><rect fill="#161310" x="1451.8" y="343.1" width="12.2" height="24.65" shape-rendering="crispEdges"/><rect fill="#161310" x="0" y="367.5" width="12.2" height="24.65" shape-rendering="crispEdges"/><rect fill="#161310" x="12.2" y="367.5" width="73.2" height="24.65" shape-rendering="crispEdges"/><rect fill="#161310" x="85.4" y="367.5" width="683.2" height="24.65" shape-rendering="crispEdges"/><rect fill="#161310" x="768.6" y="367.5" width="683.2" height="24.65" shape-rendering="crispEdges"/><rect fill="#161310" x="1451.8" y="367.5" width="12.2" height="24.65" shape-rendering="crispEdges"/><rect fill="#161310" x="0" y="391.9" width="12.2" height="24.65" shape-rendering="crispEdges"/><rect fill="#161310" x="12.2" y="391.9" width="48.8" height="24.65" shape-rendering="crispEdges"/><rect fill="#161310" x="61" y="391.9" width="488" height="24.65" shape-rendering="crispEdges"/><rect fill="#161310" x="549" y="391.9" width="902.8" height="24.65" shape-rendering="crispEdges"/><rect fill="#161310" x="1451.8" y="391.9" width="12.2" height="24.65" shape-rendering="crispEdges"/><rect fill="#161310" x="0" y="416.3" width="12.2" height="24.65" shape-rendering="crispEdges"/><rect fill="#161310" x="12.2" y="416.3" width="85.4" height="24.65" shape-rendering="crispEdges"/><rect fill="#161310" x="97.6" y="416.3" width="732" height="24.65" shape-rendering="crispEdges"/><rect fill="#161310" x="829.6" y="416.3" width="622.2" height="24.65" shape-rendering="crispEdges"/><rect fill="#161310" x="1451.8" y="416.3" width="12.2" height="24.65" shape-rendering="crispEdges"/><rect fill="#161310" x="0" y="440.7" width="12.2" height="24.65" shape-rendering="crispEdges"/><rect fill="#161310" x="12.2" y="440.7" width="122" height="24.65" shape-rendering="crispEdges"/><rect fill="#161310" x="134.2" y="440.7" width="610" height="24.65" shape-rendering="crispEdges"/><rect fill="#161310" x="744.2" y="440.7" width="707.6" height="24.65" shape-rendering="crispEdges"/><rect fill="#161310" x="1451.8" y="440.7" width="12.2" height="24.65" shape-rendering="crispEdges"/><rect fill="#161310" x="0" y="465.1" width="12.2" height="24.65" shape-rendering="crispEdges"/><rect fill="#161310" x="12.2" y="465.1" width="1439.6" height="24.65" shape-rendering="crispEdges"/><rect fill="#161310" x="1451.8" y="465.1" width="12.2" height="24.65" shape-rendering="crispEdges"/><rect fill="#161310" x="0" y="489.5" width="12.2" height="24.65" shape-rendering="crispEdges"/><rect fill="#161310" x="12.2" y="489.5" width="1439.6" height="24.65" shape-rendering="crispEdges"/><rect fill="#161310" x="1451.8" y="489.5" width="12.2" height="24.65" shape-rendering="crispEdges"/><rect fill="#161310" x="0" y="513.9" width="12.2" height="24.65" shape-rendering="crispEdges"/><rect fill="#161310" x="12.2" y="513.9" width="1439.6" height="24.65" shape-rendering="crispEdges"/><rect fill="#161310" x="1451.8" y="513.9" width="12.2" height="24.65" shape-rendering="crispEdges"/><rect fill="#161310" x="0" y="538.3" width="12.2" height="24.65" shape-rendering="crispEdges"/><rect fill="#161310" x="12.2" y="538.3" width="1439.6" height="24.65" shape-rendering="crispEdges"/><rect fill="#161310" x="1451.8" y="538.3" width="12.2" height="24.65" shape-rendering="crispEdges"/><rect fill="#161310" x="0" y="562.7" width="12.2" height="24.65" shape-rendering="crispEdges"/><rect fill="#161310" x="12.2" y="562.7" width="1439.6" height="24.65" shape-rendering="crispEdges"/><rect fill="#161310" x="1451.8" y="562.7" width="12.2" height="24.65" shape-rendering="crispEdges"/><rect fill="#161310" x="0" y="587.1" width="12.2" height="24.65" shape-rendering="crispEdges"/><rect fill="#161310" x="12.2" y="587.1" width="1439.6" height="24.65" shape-rendering="crispEdges"/><rect fill="#161310" x="1451.8" y="587.1" width="12.2" height="24.65" shape-rendering="crispEdges"/><rect fill="#161310" x="0" y="611.5" width="12.2" height="24.65" shape-rendering="crispEdges"/><rect fill="#161310" x="12.2" y="611.5" width="1439.6" height="24.65" shape-rendering="crispEdges"/><rect fill="#161310" x="1451.8" y="611.5" width="12.2" height="24.65" shape-rendering="crispEdges"/><rect fill="#161310" x="0" y="635.9" width="12.2" height="24.65" shape-rendering="crispEdges"/><rect fill="#161310" x="12.2" y="635.9" width="1439.6" height="24.65" shape-rendering="crispEdges"/><rect fill="#161310" x="1451.8" y="635.9" width="12.2" height="24.65" shape-rendering="crispEdges"/><rect fill="#161310" x="0" y="660.3" width="12.2" height="24.65" shape-rendering="crispEdges"/><rect fill="#161310" x="12.2" y="660.3" width="1439.6" height="24.65" shape-rendering="crispEdges"/><rect fill="#161310" x="1451.8" y="660.3" width="12.2" height="24.65" shape-rendering="crispEdges"/><rect fill="#161310" x="0" y="684.7" width="12.2" height="24.65" shape-rendering="crispEdges"/><rect fill="#161310" x="12.2" y="684.7" width="1439.6" height="24.65" shape-rendering="crispEdges"/><rect fill="#161310" x="1451.8" y="684.7" width="12.2" height="24.65" shape-rendering="crispEdges"/><rect fill="#161310" x="0" y="709.1" width="12.2" height="24.65" shape-rendering="crispEdges"/><rect fill="#161310" x="12.2" y="709.1" width="1439.6" height="24.65" shape-rendering="crispEdges"/><rect fill="#161310" x="1451.8" y="709.1" width="12.2" height="24.65" shape-rendering="crispEdges"/><rect fill="#161310" x="0" y="733.5" width="12.2" height="24.65" shape-rendering="crispEdges"/><rect fill="#161310" x="12.2" y="733.5" width="1439.6" height="24.65" shape-rendering="crispEdges"/><rect fill="#161310" x="1451.8" y="733.5" width="12.2" height="24.65" shape-rendering="crispEdges"/><rect fill="#161310" x="0" y="757.9" width="12.2" height="24.65" shape-rendering="crispEdges"/><rect fill="#161310" x="12.2" y="757.9" width="1439.6" height="24.65" shape-rendering="crispEdges"/><rect fill="#161310" x="1451.8" y="757.9" width="12.2" height="24.65" shape-rendering="crispEdges"/><rect fill="#161310" x="0" y="782.3" width="12.2" height="24.65" shape-rendering="crispEdges"/><rect fill="#161310" x="12.2" y="782.3" width="1439.6" height="24.65" shape-rendering="crispEdges"/><rect fill="#161310" x="1451.8" y="782.3" width="12.2" height="24.65" shape-rendering="crispEdges"/><rect fill="#161310" x="0" y="806.7" width="12.2" height="24.65" shape-rendering="crispEdges"/><rect fill="#161310" x="12.2" y="806.7" width="1439.6" height="24.65" shape-rendering="crispEdges"/><rect fill="#161310" x="1451.8" y="806.7" width="12.2" height="24.65" shape-rendering="crispEdges"/><rect fill="#161310" x="0" y="831.1" width="12.2" height="24.65" shape-rendering="crispEdges"/><rect fill="#161310" x="12.2" y="831.1" width="1439.6" height="24.65" shape-rendering="crispEdges"/><rect fill="#161310" x="1451.8" y="831.1" width="12.2" height="24.65" shape-rendering="crispEdges"/><rect fill="#27221a" x="0" y="855.5" width="36.6" height="24.65" shape-rendering="crispEdges"/><rect fill="#27221a" x="36.6" y="855.5" width="85.4" height="24.65" shape-rendering="crispEdges"/><rect fill="#27221a" x="122" y="855.5" width="1195.6" height="24.65" shape-rendering="crispEdges"/><rect fill="#27221a" x="1317.6" y="855.5" width="12.2" height="24.65" shape-rendering="crispEdges"/><rect fill="#27221a" x="1329.8" y="855.5" width="24.4" height="24.65" shape-rendering="crispEdges"/><rect fill="#27221a" x="1354.2" y="855.5" width="97.6" height="24.65" shape-rendering="crispEdges"/><rect fill="#27221a" x="1451.8" y="855.5" width="12.2" height="24.65" shape-rendering="crispEdges"/>
    <g class="terminal-1956170498-matrix">
    <text class="terminal-1956170498-r2" x="12.2" y="20" textLength="109.8" clip-path="url(#terminal-1956170498-line-0)">&#160;◍&#160;kstrl&#160;</text><text class="terminal-1956170498-r4" x="146.4" y="20" textLength="134.2" clip-path="url(#terminal-1956170498-line-0)">tmpp8l7p7i_</text><text class="terminal-1956170498-r5" x="280.6" y="20" textLength="170.8" clip-path="url(#terminal-1956170498-line-0)">&#160;&#160;kstrl.toml&#160;✓</text><text class="terminal-1956170498-r1" x="1464" y="20" textLength="12.2" clip-path="url(#terminal-1956170498-line-0)">
</text><text class="terminal-1956170498-r5" x="12.2" y="44.4" textLength="109.8" clip-path="url(#terminal-1956170498-line-1)">last&#160;run&#160;</text><text class="terminal-1956170498-r6" x="122" y="44.4" textLength="73.2" clip-path="url(#terminal-1956170498-line-1)">✓&#160;done</text><text class="terminal-1956170498-r4" x="195.2" y="44.4" textLength="48.8" clip-path="url(#terminal-1956170498-line-1)">&#160;1/3</text><text class="terminal-1956170498-r7" x="280.6" y="44.4" textLength="280.6" clip-path="url(#terminal-1956170498-line-1)">▲&#160;1&#160;proposal(s)&#160;pending</text><text class="terminal-1956170498-r1" x="1464" y="44.4" textLength="12.2" clip-path="url(#terminal-1956170498-line-1)">
</text><text class="terminal-1956170498-r8" x="12.2" y="68.8" textLength="48.8" clip-path="url(#terminal-1956170498-line-2)">runs</text><text class="terminal-1956170498-r1" x="1464" y="68.8" textLength="12.2" clip-path="url(#terminal-1956170498-line-2)">
</text><text class="terminal-1956170498-r9" x="0" y="93.2" textLength="1464" clip-path="url(#terminal-1956170498-line-3)">────────────────────────────────────────────────────────────────────────────────────────────────────────────────────────</text><text class="terminal-1956170498-r1" x="1464" y="93.2" textLength="12.2" clip-path="url(#terminal-1956170498-line-3)">
</text><text class="terminal-1956170498-r4" x="36.6" y="117.6" textLength="97.6" clip-path="url(#terminal-1956170498-line-4)">&#160;run&#160;&#160;&#160;&#160;</text><text class="terminal-1956170498-r4" x="134.2" y="117.6" textLength="134.2" clip-path="url(#terminal-1956170498-line-4)">&#160;kind&#160;&#160;&#160;&#160;&#160;&#160;</text><text class="terminal-1956170498-r4" x="268.4" y="117.6" textLength="61" clip-path="url(#terminal-1956170498-line-4)">&#160;age&#160;</text><text class="terminal-1956170498-r4" x="329.4" y="117.6" textLength="85.4" clip-path="url(#terminal-1956170498-line-4)">&#160;comps&#160;</text><text class="terminal-1956170498-r4" x="414.8" y="117.6" textLength="61" clip-path="url(#terminal-1956170498-line-4)">&#160;tok&#160;</text><text class="terminal-1956170498-r4" x="475.8" y="117.6" textLength="73.2" clip-path="url(#terminal-1956170498-line-4)">&#160;cost&#160;</text><text class="terminal-1956170498-r1" x="1464" y="117.6" textLength="12.2" clip-path="url(#terminal-1956170498-line-4)">
</text><text class="terminal-1956170498-r2" x="0" y="142" textLength="36.6" clip-path="url(#terminal-1956170498-line-5)">&#160;✓&#160;</text><text class="terminal-1956170498-r2" x="36.6" y="142" textLength="97.6" clip-path="url(#terminal-1956170498-line-5)">&#160;e03f51&#160;</text><text class="terminal-1956170498-r2" x="134.2" y="142" textLength="134.2" clip-path="url(#terminal-1956170498-line-5)">&#160;decompose&#160;</text><text class="terminal-1956170498-r2" x="268.4" y="142" textLength="61" clip-path="url(#terminal-1956170498-line-5)">&#160;&#160;0s&#160;</text><text class="terminal-1956170498-r2" x="329.4" y="142" textLength="85.4" clip-path="url(#terminal-1956170498-line-5)">&#160;&#160;&#160;1/3&#160;</text><text class="terminal-1956170498-r2" x="414.8" y="142" textLength="61" clip-path="url(#terminal-1956170498-line-5)">&#160;&#160;&#160;·&#160;</text><text class="terminal-1956170498-r2" x="475.8" y="142" textLength="73.2" clip-path="url(#terminal-1956170498-line-5)">&#160;&#160;&#160;&#160;·&#160;</text><text class="terminal-1956170498-r1" x="1464" y="142" textLength="12.2" clip-path="url(#terminal-1956170498-line-5)">
</text><text class="terminal-1956170498-r6" x="12.2" y="166.4" textLength="12.2" clip-path="url(#terminal-1956170498-line-6)">✓</text><text class="terminal-1956170498-r4" x="48.8" y="166.4" textLength="73.2" clip-path="url(#terminal-1956170498-line-6)">9d77af</text><text class="terminal-1956170498-r5" x="146.4" y="166.4" textLength="85.4" clip-path="url(#terminal-1956170498-line-6)">feature</text><text class="terminal-1956170498-r5" x="280.6" y="166.4" textLength="36.6" clip-path="url(#terminal-1956170498-line-6)">&#160;0s</text><text class="terminal-1956170498-r3" x="329.4" y="166.4" textLength="85.4" clip-path="url(#terminal-1956170498-line-6)">&#160;&#160;&#160;1/1&#160;</text><text class="terminal-1956170498-r5" x="427" y="166.4" textLength="36.6" clip-path="url(#terminal-1956170498-line-6)">&#160;&#160;·</text><text class="terminal-1956170498-r5" x="488" y="166.4" textLength="48.8" clip-path="url(#terminal-1956170498-line-6)">&#160;&#160;&#160;·</text><text class="terminal-1956170498-r1" x="1464" y="166.4" textLength="12.2" clip-path="url(#terminal-1956170498-line-6)">
</text><text class="terminal-1956170498-r6" x="12.2" y="190.8" textLength="12.2" clip-path="url(#terminal-1956170498-line-7)">✓</text><text class="terminal-1956170498-r4" x="48.8" y="190.8" textLength="73.2" clip-path="url(#terminal-1956170498-line-7)">b41c2e</text><text class="terminal-1956170498-r5" x="146.4" y="190.8" textLength="85.4" clip-path="url(#terminal-1956170498-line-7)">factory</text><text class="terminal-1956170498-r5" x="280.6" y="190.8" textLength="36.6" clip-path="url(#terminal-1956170498-line-7)">&#160;0s</text><text class="terminal-1956170498-r3" x="329.4" y="190.8" textLength="85.4" clip-path="url(#terminal-1956170498-line-7)">&#160;&#160;&#160;3/3&#160;</text><text class="terminal-1956170498-r3" x="414.8" y="190.8" textLength="61" clip-path="url(#terminal-1956170498-line-7)">&#160;288&#160;</text><text class="terminal-1956170498-r3" x="475.8" y="190.8" textLength="73.2" clip-path="url(#terminal-1956170498-line-7)">&#160;$4.5&#160;</text><text class="terminal-1956170498-r1" x="1464" y="190.8" textLength="12.2" clip-path="url(#terminal-1956170498-line-7)">
</text><text class="terminal-1956170498-r10" x="12.2" y="215.2" textLength="97.6" clip-path="url(#terminal-1956170498-line-8)">commands</text><text class="terminal-1956170498-r1" x="1464" y="215.2" textLength="12.2" clip-path="url(#terminal-1956170498-line-8)">
</text><text class="terminal-1956170498-r9" x="0" y="239.6" textLength="1464" clip-path="url(#terminal-1956170498-line-9)">────────────────────────────────────────────────────────────────────────────────────────────────────────────────────────</text><text class="terminal-1956170498-r1" x="1464" y="239.6" textLength="12.2" clip-path="url(#terminal-1956170498-line-9)">
</text><text class="terminal-1956170498-r4" x="12.2" y="264" textLength="85.4" clip-path="url(#terminal-1956170498-line-10)">factory</text><text class="terminal-1956170498-r8" x="97.6" y="264" textLength="488" clip-path="url(#terminal-1956170498-line-10)">&#160;&#160;launch&#160;a&#160;factory&#160;run&#160;from&#160;the&#160;manifest</text><text class="terminal-1956170498-r1" x="1464" y="264" textLength="12.2" clip-path="url(#terminal-1956170498-line-10)">
</text><text class="terminal-1956170498-r4" x="12.2" y="288.4" textLength="109.8" clip-path="url(#terminal-1956170498-line-11)">decompose</text><text class="terminal-1956170498-r8" x="122" y="288.4" textLength="500.2" clip-path="url(#terminal-1956170498-line-11)">&#160;&#160;decompose&#160;a&#160;spec&#160;into&#160;components&#160;+&#160;PRDs</text><text class="terminal-1956170498-r1" x="1464" y="288.4" textLength="12.2" clip-path="url(#terminal-1956170498-line-11)">
</text><text class="terminal-1956170498-r4" x="12.2" y="312.8" textLength="61" clip-path="url(#terminal-1956170498-line-12)">retry</text><text class="terminal-1956170498-r8" x="73.2" y="312.8" textLength="536.8" clip-path="url(#terminal-1956170498-line-12)">&#160;&#160;retry&#160;a&#160;failed&#160;component&#160;from&#160;the&#160;manifest</text><text class="terminal-1956170498-r1" x="1464" y="312.8" textLength="12.2" clip-path="url(#terminal-1956170498-line-12)">
</text><text class="terminal-1956170498-r4" x="12.2" y="337.2" textLength="109.8" clip-path="url(#terminal-1956170498-line-13)">dashboard</text><text class="terminal-1956170498-r8" x="122" y="337.2" textLength="646.6" clip-path="url(#terminal-1956170498-line-13)">&#160;&#160;open&#160;the&#160;newest&#160;run&#160;(enter&#160;on&#160;a&#160;row&#160;opens&#160;that&#160;run)</text><text class="terminal-1956170498-r1" x="1464" y="337.2" textLength="12.2" clip-path="url(#terminal-1956170498-line-13)">
</text><text class="terminal-1956170498-r4" x="12.2" y="361.6" textLength="73.2" clip-path="url(#terminal-1956170498-line-14)">config</text><text class="terminal-1956170498-r8" x="85.4" y="361.6" textLength="573.4" clip-path="url(#terminal-1956170498-line-14)">&#160;&#160;resolved&#160;configuration&#160;with&#160;per-value&#160;sources</text><text class="terminal-1956170498-r1" x="1464" y="361.6" textLength="12.2" clip-path="url(#terminal-1956170498-line-14)">
</text><text class="terminal-1956170498-r4" x="12.2" y="386" textLength="73.2" clip-path="url(#terminal-1956170498-line-15)">evolve</text><text class="terminal-1956170498-r8" x="85.4" y="386" textLength="683.2" clip-path="url(#terminal-1956170498-line-15)">&#160;&#160;harness&#160;proposals,&#160;failure&#160;patterns,&#160;experiment&#160;trends</text><text class="terminal-1956170498-r1" x="1464" y="386" textLength="12.2" clip-path="url(#terminal-1956170498-line-15)">
</text><text class="terminal-1956170498-r4" x="12.2" y="410.4" textLength="48.8" clip-path="url(#terminal-1956170498-line-16)">init</text><text class="terminal-1956170498-r8" x="61" y="410.4" textLength="488" clip-path="url(#terminal-1956170498-line-16)">&#160;&#160;scaffold&#160;kstrl&#160;into&#160;a&#160;project&#160;(wizard)</text><text class="terminal-1956170498-r1" x="1464" y="410.4" textLength="12.2" clip-path="url(#terminal-1956170498-line-16)">
</text><text class="terminal-1956170498-r4" x="12.2" y="434.8" textLength="85.4" clip-path="url(#terminal-1956170498-line-17)">feature</text><text class="terminal-1956170498-r8" x="97.6" y="434.8" textLength="732" clip-path="url(#terminal-1956170498-line-17)">&#160;&#160;CLI:&#160;ks&#160;feature&#160;--prd&#160;&lt;path&gt;&#160;(opens&#160;the&#160;same&#160;embedded&#160;TUI)</text><text class="terminal-1956170498-r1" x="1464" y="434.8" textLength="12.2" clip-path="url(#terminal-1956170498-line-17)">
</text><text class="terminal-1956170498-r4" x="12.2" y="459.2" textLength="122" clip-path="url(#terminal-1956170498-line-18)">understand</text><text class="terminal-1956170498-r8" x="134.2" y="459.2" textLength="610" clip-path="url(#terminal-1956170498-line-18)">&#160;&#160;CLI:&#160;ks&#160;understand&#160;(opens&#160;the&#160;same&#160;embedded&#160;TUI)</text><text class="terminal-1956170498-r1" x="1464" y="459.2" textLength="12.2" clip-path="url(#terminal-1956170498-line-18)">
</text><text class="terminal-1956170498-r1" x="1464" y="483.6" textLength="12.2" clip-path="url(#terminal-1956170498-line-19)">
</text><text class="terminal-1956170498-r1" x="1464" y="508" textLength="12.2" clip-path="url(#terminal-1956170498-line-20)">
</text><text class="terminal-1956170498-r1" x="1464" y="532.4" textLength="12.2" clip-path="url(#terminal-1956170498-line-21)">
</text><text class="terminal-1956170498-r1" x="1464" y="556.8" textLength="12.2" clip-path="url(#terminal-1956170498-line-22)">
</text><text class="terminal-1956170498-r1" x="1464" y="581.2" textLength="12.2" clip-path="url(#terminal-1956170498-line-23)">
</text><text class="terminal-1956170498-r1" x="1464" y="605.6" textLength="12.2" clip-path="url(#terminal-1956170498-line-24)">
</text><text class="terminal-1956170498-r1" x="1464" y="630" textLength="12.2" clip-path="url(#terminal-1956170498-line-25)">
</text><text class="terminal-1956170498-r1" x="1464" y="654.4" textLength="12.2" clip-path="url(#terminal-1956170498-line-26)">
</text><text class="terminal-1956170498-r1" x="1464" y="678.8" textLength="12.2" clip-path="url(#terminal-1956170498-line-27)">
</text><text class="terminal-1956170498-r1" x="1464" y="703.2" textLength="12.2" clip-path="url(#terminal-1956170498-line-28)">
</text><text class="terminal-1956170498-r1" x="1464" y="727.6" textLength="12.2" clip-path="url(#terminal-1956170498-line-29)">
</text><text class="terminal-1956170498-r1" x="1464" y="752" textLength="12.2" clip-path="url(#terminal-1956170498-line-30)">
</text><text class="terminal-1956170498-r1" x="1464" y="776.4" textLength="12.2" clip-path="url(#terminal-1956170498-line-31)">
</text><text class="terminal-1956170498-r1" x="1464" y="800.8" textLength="12.2" clip-path="url(#terminal-1956170498-line-32)">
</text><text class="terminal-1956170498-r1" x="1464" y="825.2" textLength="12.2" clip-path="url(#terminal-1956170498-line-33)">
</text><text class="terminal-1956170498-r1" x="1464" y="849.6" textLength="12.2" clip-path="url(#terminal-1956170498-line-34)">
</text><text class="terminal-1956170498-r11" x="0" y="874" textLength="36.6" clip-path="url(#terminal-1956170498-line-35)">&#160;q&#160;</text><text class="terminal-1956170498-r3" x="36.6" y="874" textLength="85.4" clip-path="url(#terminal-1956170498-line-35)">Detach&#160;</text><text class="terminal-1956170498-r12" x="1317.6" y="874" textLength="12.2" clip-path="url(#terminal-1956170498-line-35)">▏</text><text class="terminal-1956170498-r11" x="1329.8" y="874" textLength="24.4" clip-path="url(#terminal-1956170498-line-35)">^p</text><text class="terminal-1956170498-r3" x="1354.2" y="874" textLength="97.6" clip-path="url(#terminal-1956170498-line-35)">&#160;palette</text>
    </g>
    </g>
</svg>
