<svg class="rich-terminal" viewBox="0 0 1360 782.0" xmlns="http://www.w3.org/2000/svg">
    <!-- Generated with Rich https://www.textualize.io -->
    <style>

    @font-face {
        font-family: "Fira Code";
        src: local("FiraCode-Regular"),
                url("https://cdnjs.cloudflare.com/ajax/libs/firacode/6.2.0/woff2/FiraCode-Regular.woff2") format("woff2"),
                url("https://cdnjs.cloudflare.com/ajax/libs/firacode/6.2.0/woff/FiraCode-Regular.woff") format("woff");
        font-style: normal;
        font-weight: 400;
    }
    @font-face {
        font-family: "Fira Code";
        src: local("FiraCode-Bold"),
                url("https://cdnjs.cloudflare.com/ajax/libs/firacode/6.2.0/woff2/FiraCode-Bold.woff2") format("woff2"),
                url("https://cdnjs.cloudflare.com/ajax/libs/firacode/6.2.0/woff/FiraCode-Bold.woff") format("woff");
        font-style: bold;
        font-weight: 700;
    }

    .terminal-2757454657-matrix {
        font-family: Fira Code, monospace;
        font-size: 20px;
        line-height: 24.4px;
        font-variant-east-asian: full-width;
    }

    .terminal-2757454657-title {
        font-size: 18px;
        font-weight: bold;
        font-family: arial;
    }

    .terminal-2757454657-r1 { fill: #242f38;font-weight: bold }
.terminal-2757454657-r2 { fill: #e0e0e0;font-weight: bold }
.terminal-2757454657-r3 { fill: #fd971f }
.terminal-2757454657-r4 { fill: #a0a3a6 }
.terminal-2757454657-r5 { fill: #c5c8c6 }
.terminal-2757454657-r6 { fill: #98e024 }
.terminal-2757454657-r7 { fill: #999999 }
.terminal-2757454657-r8 { fill: #242f38 }
.terminal-2757454657-r9 { fill: #e0e0e0 }
.terminal-2757454657-r10 { fill: #ddedf9;font-weight: bold }
.terminal-2757454657-r11 { fill: #704d1c }
.terminal-2757454657-r12 { fill: #ffa62b;font-weight: bold }
.terminal-2757454657-r13 { fill: #495259 }
    </style>

    <defs>
    <clipPath id="terminal-2757454657-clip-terminal">
      <rect x="0" y="0" width="1341.0" height="731.0" />
    </clipPath>
    <clipPath id="terminal-2757454657-line-0">
    <rect x="0" y="1.5" width="1342" height="24.65"/>
            </clipPath>
<clipPath id="terminal-2757454657-line-1">
    <rect x="0" y="25.9" width="1342" height="24.65"/>
            </clipPath>
<clipPath id="terminal-2757454657-line-2">
    <rect x="0" y="50.3" width="1342" height="24.65"/>
            </clipPath>
<clipPath id="terminal-2757454657-line-3">
    <rect x="0" y="74.7" width="1342" height="24.65"/>
            </clipPath>
<clipPath id="terminal-2757454657-line-4">
    <rect x="0" y="99.1" width="1342" height="24.65"/>
            </clipPath>
<clipPath id="terminal-2757454657-line-5">
    <rect x="0" y="123.5" width="1342" height="24.65"/>
            </clipPath>
<clipPath id="terminal-2757454657-line-6">
    <rect x="0" y="147.9" width="1342" height="24.65"/>
            </clipPath>
<clipPath id="terminal-2757454657-line-7">
    <rect x="0" y="172.3" width="1342" height="24.65"/>
            </clipPath>
<clipPath id="terminal-2757454657-line-8">
    <rect x="0" y="196.7" width="1342" height="24.65"/>
            </clipPath>
<clipPath id="terminal-2757454657-line-9">
    <rect x="0" y="221.1" width="1342" height="24.65"/>
            </clipPath>
<clipPath id="terminal-2757454657-line-10">
    <rect x="0" y="245.5" width="1342" height="24.65"/>
            </clipPath>
<clipPath id="terminal-2757454657-line-11">
    <rect x="0" y="269.9" width="1342" height="24.65"/>
            </clipPath>
<clipPath id="terminal-2757454657-line-12">
    <rect x="0" y="294.3" width="1342" height="24.65"/>
            </clipPath>
<clipPath id="terminal-2757454657-line-13">
    <rect x="0" y="318.7" width="1342" height="24.65"/>
            </clipPath>
<clipPath id="terminal-2757454657-line-14">
    <rect x="0" y="343.1" width="1342" height="24.65"/>
            </clipPath>
<clipPath id="terminal-2757454657-line-15">
    <rect x="0" y="367.5" width="1342" height="24.65"/>
            </clipPath>
<clipPath id="terminal-2757454657-line-16">
    <rect x="0" y="391.9" width="1342" height="24.65"/>
            </clipPath>
<clipPath id="terminal-2757454657-line-17">
    <rect x="0" y="416.3" width="1342" height="24.65"/>
            </clipPath>
<clipPath id="terminal-2757454657-line-18">
    <rect x="0" y="440.7" width="1342" height="24.65"/>
            </clipPath>
<clipPath id="terminal-2757454657-line-19">
    <rect x="0" y="465.1" width="1342" height="24.65"/>
            </clipPath>
<clipPath id="terminal-2757454657-line-20">
    <rect x="0" y="489.5" width="1342" height="24.65"/>
            </clipPath>
<clipPath id="terminal-2757454657-line-21">
    <rect x="0" y="513.9" width="1342" height="24.65"/>
            </clipPath>
<clipPath id="terminal-2757454657-line-22">
    <rect x="0" y="538.3" width="1342" height="24.65"/>
            </clipPath>
<clipPath id="terminal-2757454657-line-23">
    <rect x="0" y="562.7" width="1342" height="24.65"/>
            </clipPath>
<clipPath id="terminal-2757454657-line-24">
    <rect x="0" y="587.1" width="1342" height="24.65"/>
            </clipPath>
<clipPath id="terminal-2757454657-line-25">
    <rect x="0" y="611.5" width="1342" height="24.65"/>
            </clipPath>
<clipPath id="terminal-2757454657-line-26">
    <rect x="0" y="635.9" width="1342" height="24.65"/>
            </clipPath>
<clipPath id="terminal-2757454657-line-27">
    <rect x="0" y="660.3" width="1342" height="24.65"/>
            </clipPath>
<clipPath id="terminal-2757454657-line-28">
    <rect x="0" y="684.7" width="1342" height="24.65"/>
            </clipPath>
    </defs>

    <rect fill="#292929" stroke="rgba(255,255,255,0.35)" stroke-width="1" x="1" y="1" width="1358" height="780" rx="8"/><text class="terminal-2757454657-title" fill="#c5c8c6" text-anchor="middle" x="679" y="27">ralph</text>
            <g transform="translate(26,22)">
            <circle cx="0" cy="0" r="7" fill="#ff5f57"/>
            <circle cx="22" cy="0" r="7" fill="#febc2e"/>
            <circle cx="44" cy="0" r="7" fill="#28c840"/>
            </g>
        
    <g transform="translate(9, 41)" clip-path="url(#terminal-2757454657-clip-terminal)">
    <rect fill="#e0e0e0" x="0" y="1.5" width="134.2" height="24.65" shape-rendering="crispEdges"/><rect fill="#242f38" x="134.2" y="1.5" width="134.2" height="24.65" shape-rendering="crispEdges"/><rect fill="#242f38" x="268.4" y="1.5" width="134.2" height="24.65" shape-rendering="crispEdges"/><rect fill="#242f38" x="402.6" y="1.5" width="170.8" height="24.65" shape-rendering="crispEdges"/><rect fill="#242f38" x="573.4" y="1.5" width="768.6" height="24.65" shape-rendering="crispEdges"/><rect fill="#121212" x="0" y="25.9" width="12.2" height="24.65" shape-rendering="crispEdges"/><rect fill="#121212" x="12.2" y="25.9" width="158.6" height="24.65" shape-rendering="crispEdges"/><rect fill="#121212" x="170.8" y="25.9" width="36.6" height="24.65" shape-rendering="crispEdges"/><rect fill="#121212" x="207.4" y="25.9" width="73.2" height="24.65" shape-rendering="crispEdges"/><rect fill="#121212" x="280.6" y="25.9" width="134.2" height="24.65" shape-rendering="crispEdges"/><rect fill="#121212" x="414.8" y="25.9" width="73.2" height="24.65" shape-rendering="crispEdges"/><rect fill="#121212" x="488" y="25.9" width="109.8" height="24.65" shape-rendering="crispEdges"/><rect fill="#121212" x="597.8" y="25.9" width="36.6" height="24.65" shape-rendering="crispEdges"/><rect fill="#121212" x="634.4" y="25.9" width="73.2" height="24.65" shape-rendering="crispEdges"/><rect fill="#121212" x="707.6" y="25.9" width="134.2" height="24.65" shape-rendering="crispEdges"/><rect fill="#121212" x="841.8" y="25.9" width="73.2" height="24.65" shape-rendering="crispEdges"/><rect fill="#121212" x="915" y="25.9" width="158.6" height="24.65" shape-rendering="crispEdges"/><rect fill="#121212" x="1073.6" y="25.9" width="73.2" height="24.65" shape-rendering="crispEdges"/><rect fill="#121212" x="1146.8" y="25.9" width="146.4" height="24.65" shape-rendering="crispEdges"/><rect fill="#121212" x="1293.2" y="25.9" width="36.6" height="24.65" shape-rendering="crispEdges"/><rect fill="#121212" x="1329.8" y="25.9" width="12.2" height="24.65" shape-rendering="crispEdges"/><rect fill="#121212" x="0" y="50.3" width="1342" height="24.65" shape-rendering="crispEdges"/><rect fill="#2d3740" x="0" y="74.7" width="122" height="24.65" shape-rendering="crispEdges"/><rect fill="#2d3740" x="122" y="74.7" width="122" height="24.65" shape-rendering="crispEdges"/><rect fill="#2d3740" x="244" y="74.7" width="183" height="24.65" shape-rendering="crispEdges"/><rect fill="#2d3740" x="427" y="74.7" width="122" height="24.65" shape-rendering="crispEdges"/><rect fill="#2d3740" x="549" y="74.7" width="85.4" height="24.65" shape-rendering="crispEdges"/><rect fill="#2d3740" x="634.4" y="74.7" width="61" height="24.65" shape-rendering="crispEdges"/><rect fill="#2b3339" x="695.4" y="74.7" width="646.6" height="24.65" shape-rendering="crispEdges"/><rect fill="#0178d4" x="0" y="99.1" width="122" height="24.65" shape-rendering="crispEdges"/><rect fill="#0178d4" x="122" y="99.1" width="122" height="24.65" shape-rendering="crispEdges"/><rect fill="#0178d4" x="244" y="99.1" width="183" height="24.65" shape-rendering="crispEdges"/><rect fill="#0178d4" x="427" y="99.1" width="122" height="24.65" shape-rendering="crispEdges"/><rect fill="#0178d4" x="549" y="99.1" width="85.4" height="24.65" shape-rendering="crispEdges"/><rect fill="#0178d4" x="634.4" y="99.1" width="61" height="24.65" shape-rendering="crispEdges"/><rect fill="#1e1e1e" x="695.4" y="99.1" width="646.6" height="24.65" shape-rendering="crispEdges"/><rect fill="#272727" x="0" y="123.5" width="122" height="24.65" shape-rendering="crispEdges"/><rect fill="#272727" x="122" y="123.5" width="122" height="24.65" shape-rendering="crispEdges"/><rect fill="#272727" x="244" y="123.5" width="183" height="24.65" shape-rendering="crispEdges"/><rect fill="#272727" x="427" y="123.5" width="122" height="24.65" shape-rendering="crispEdges"/><rect fill="#272727" x="549" y="123.5" width="85.4" height="24.65" shape-rendering="crispEdges"/><rect fill="#272727" x="634.4" y="123.5" width="61" height="24.65" shape-rendering="crispEdges"/><rect fill="#272727" x="695.4" y="123.5" width="646.6" height="24.65" shape-rendering="crispEdges"/><rect fill="#1c1c1c" x="0" y="147.9" width="122" height="24.65" shape-rendering="crispEdges"/><rect fill="#1c1c1c" x="122" y="147.9" width="122" height="24.65" shape-rendering="crispEdges"/><rect fill="#1c1c1c" x="244" y="147.9" width="183" height="24.65" shape-rendering="crispEdges"/><rect fill="#1c1c1c" x="427" y="147.9" width="122" height="24.65" shape-rendering="crispEdges"/><rect fill="#1c1c1c" x="549" y="147.9" width="85.4" height="24.65" shape-rendering="crispEdges"/><rect fill="#1c1c1c" x="634.4" y="147.9" width="61" height="24.65" shape-rendering="crispEdges"/><rect fill="#1e1e1e" x="695.4" y="147.9" width="646.6" height="24.65" shape-rendering="crispEdges"/><rect fill="#1e1e1e" x="0" y="172.3" width="1342" height="24.65" shape-rendering="crispEdges"/><rect fill="#1e1e1e" x="0" y="196.7" width="646.6" height="24.65" shape-rendering="crispEdges"/><rect fill="#1e1e1e" x="646.6" y="196.7" width="671" height="24.65" shape-rendering="crispEdges"/><rect fill="#000000" x="1317.6" y="196.7" width="24.4" height="24.65" shape-rendering="crispEdges"/><rect fill="#1e1e1e" x="0" y="221.1" width="475.8" height="24.65" shape-rendering="crispEdges"/><rect fill="#1e1e1e" x="475.8" y="221.1" width="841.8" height="24.65" shape-rendering="crispEdges"/><rect fill="#000000" x="1317.6" y="221.1" width="24.4" height="24.65" shape-rendering="crispEdges"/><rect fill="#1e1e1e" x="0" y="245.5" width="622.2" height="24.65" shape-rendering="crispEdges"/><rect fill="#1e1e1e" x="622.2" y="245.5" width="695.4" height="24.65" shape-rendering="crispEdges"/><rect fill="#000000" x="1317.6" y="245.5" width="24.4" height="24.65" shape-rendering="crispEdges"/><rect fill="#1e1e1e" x="0" y="269.9" width="427" height="24.65" shape-rendering="crispEdges"/><rect fill="#1e1e1e" x="427" y="269.9" width="890.6" height="24.65" shape-rendering="crispEdges"/><rect fill="#000000" x="1317.6" y="269.9" width="24.4" height="24.65" shape-rendering="crispEdges"/><rect fill="#1e1e1e" x="0" y="294.3" width="244" height="24.65" shape-rendering="crispEdges"/><rect fill="#1e1e1e" x="244" y="294.3" width="1073.6" height="24.65" shape-rendering="crispEdges"/><rect fill="#000000" x="1317.6" y="294.3" width="24.4" height="24.65" shape-rendering="crispEdges"/><rect fill="#1e1e1e" x="0" y="318.7" width="195.2" height="24.65" shape-rendering="crispEdges"/><rect fill="#1e1e1e" x="195.2" y="318.7" width="1122.4" height="24.65" shape-rendering="crispEdges"/><rect fill="#000000" x="1317.6" y="318.7" width="24.4" height="24.65" shape-rendering="crispEdges"/><rect fill="#1e1e1e" x="0" y="343.1" width="610" height="24.65" shape-rendering="crispEdges"/><rect fill="#1e1e1e" x="610" y="343.1" width="707.6" height="24.65" shape-rendering="crispEdges"/><rect fill="#000000" x="1317.6" y="343.1" width="24.4" height="24.65" shape-rendering="crispEdges"/><rect fill="#1e1e1e" x="0" y="367.5" width="329.4" height="24.65" shape-rendering="crispEdges"/><rect fill="#1e1e1e" x="329.4" y="367.5" width="988.2" height="24.65" shape-rendering="crispEdges"/><rect fill="#000000" x="1317.6" y="367.5" width="24.4" height="24.65" shape-rendering="crispEdges"/><rect fill="#1e1e1e" x="0" y="391.9" width="1317.6" height="24.65" shape-rendering="crispEdges"/><rect fill="#000000" x="1317.6" y="391.9" width="24.4" height="24.65" shape-rendering="crispEdges"/><rect fill="#1e1e1e" x="0" y="416.3" width="1317.6" height="24.65" shape-rendering="crispEdges"/><rect fill="#000000" x="1317.6" y="416.3" width="24.4" height="24.65" shape-rendering="crispEdges"/><rect fill="#1e1e1e" x="0" y="440.7" width="1317.6" height="24.65" shape-rendering="crispEdges"/><rect fill="#000000" x="1317.6" y="440.7" width="24.4" height="24.65" shape-rendering="crispEdges"/><rect fill="#1e1e1e" x="0" y="465.1" width="1317.6" height="24.65" shape-rendering="crispEdges"/><rect fill="#000000" x="1317.6" y="465.1" width="24.4" height="24.65" shape-rendering="crispEdges"/><rect fill="#1e1e1e" x="0" y="489.5" width="1317.6" height="24.65" shape-rendering="crispEdges"/><rect fill="#000000" x="1317.6" y="489.5" width="24.4" height="24.65" shape-rendering="crispEdges"/><rect fill="#1e1e1e" x="0" y="513.9" width="1317.6" height="24.65" shape-rendering="crispEdges"/><rect fill="#000000" x="1317.6" y="513.9" width="24.4" height="24.65" shape-rendering="crispEdges"/><rect fill="#1e1e1e" x="0" y="538.3" width="1317.6" height="24.65" shape-rendering="crispEdges"/><rect fill="#000000" x="1317.6" y="538.3" width="24.4" height="24.65" shape-rendering="crispEdges"/><rect fill="#1e1e1e" x="0" y="562.7" width="1317.6" height="24.65" shape-rendering="crispEdges"/><rect fill="#000000" x="1317.6" y="562.7" width="24.4" height="24.65" shape-rendering="crispEdges"/><rect fill="#1e1e1e" x="0" y="587.1" width="1317.6" height="24.65" shape-rendering="crispEdges"/><rect fill="#000000" x="1317.6" y="587.1" width="24.4" height="24.65" shape-rendering="crispEdges"/><rect fill="#1e1e1e" x="0" y="611.5" width="1317.6" height="24.65" shape-rendering="crispEdges"/><rect fill="#000000" x="1317.6" y="611.5" width="24.4" height="24.65" shape-rendering="crispEdges"/><rect fill="#1e1e1e" x="0" y="635.9" width="1317.6" height="24.65" shape-rendering="crispEdges"/><rect fill="#000000" x="1317.6" y="635.9" width="24.4" height="24.65" shape-rendering="crispEdges"/><rect fill="#1e1e1e" x="0" y="660.3" width="1317.6" height="24.65" shape-rendering="crispEdges"/><rect fill="#000000" x="1317.6" y="660.3" width="24.4" height="24.65" shape-rendering="crispEdges"/><rect fill="#242f38" x="0" y="684.7" width="12.2" height="24.65" shape-rendering="crispEdges"/><rect fill="#242f38" x="12.2" y="684.7" width="146.4" height="24.65" shape-rendering="crispEdges"/><rect fill="#242f38" x="158.6" y="684.7" width="280.6" height="24.65" shape-rendering="crispEdges"/><rect fill="#242f38" x="439.2" y="684.7" width="890.6" height="24.65" shape-rendering="crispEdges"/><rect fill="#242f38" x="1329.8" y="684.7" width="12.2" height="24.65" shape-rendering="crispEdges"/><rect fill="#242f38" x="0" y="709.1" width="61" height="24.65" shape-rendering="crispEdges"/><rect fill="#242f38" x="61" y="709.1" width="61" height="24.65" shape-rendering="crispEdges"/><rect fill="#242f38" x="122" y="709.1" width="36.6" height="24.65" shape-rendering="crispEdges"/><rect fill="#242f38" x="158.6" y="709.1" width="85.4" height="24.65" shape-rendering="crispEdges"/><rect fill="#242f38" x="244" y="709.1" width="36.6" height="24.65" shape-rendering="crispEdges"/><rect fill="#242f38" x="280.6" y="709.1" width="85.4" height="24.65" shape-rendering="crispEdges"/><rect fill="#242f38" x="366" y="709.1" width="829.6" height="24.65" shape-rendering="crispEdges"/><rect fill="#242f38" x="1195.6" y="709.1" width="12.2" height="24.65" shape-rendering="crispEdges"/><rect fill="#242f38" x="1207.8" y="709.1" width="24.4" height="24.65" shape-rendering="crispEdges"/><rect fill="#242f38" x="1232.2" y="709.1" width="97.6" height="24.65" shape-rendering="crispEdges"/><rect fill="#242f38" x="1329.8" y="709.1" width="12.2" height="24.65" shape-rendering="crispEdges"/>
    <g class="terminal-2757454657-matrix">
    <text class="terminal-2757454657-r1" x="0" y="20" textLength="134.2" clip-path="url(#terminal-2757454657-line-0)">&#160;auth-core&#160;</text><text class="terminal-2757454657-r2" x="134.2" y="20" textLength="134.2" clip-path="url(#terminal-2757454657-line-0)">&#160;&#160;Auth&#160;Core</text><text class="terminal-2757454657-r3" x="268.4" y="20" textLength="134.2" clip-path="url(#terminal-2757454657-line-0)">&#160;&#160;completed</text><text class="terminal-2757454657-r4" x="402.6" y="20" textLength="170.8" clip-path="url(#terminal-2757454657-line-0)">&#160;&#160;3&#160;finding(s)</text><text class="terminal-2757454657-r5" x="1342" y="20" textLength="12.2" clip-path="url(#terminal-2757454657-line-0)">
</text><text class="terminal-2757454657-r6" x="12.2" y="44.4" textLength="158.6" clip-path="url(#terminal-2757454657-line-1)">engineer&#160;pass</text><text class="terminal-2757454657-r7" x="170.8" y="44.4" textLength="36.6" clip-path="url(#terminal-2757454657-line-1)">&#160;5s</text><text class="terminal-2757454657-r7" x="207.4" y="44.4" textLength="73.2" clip-path="url(#terminal-2757454657-line-1)">&#160;&#160;-&gt;&#160;&#160;</text><text class="terminal-2757454657-r6" x="280.6" y="44.4" textLength="134.2" clip-path="url(#terminal-2757454657-line-1)">verify&#160;pass</text><text class="terminal-2757454657-r7" x="414.8" y="44.4" textLength="73.2" clip-path="url(#terminal-2757454657-line-1)">&#160;&#160;-&gt;&#160;&#160;</text><text class="terminal-2757454657-r6" x="488" y="44.4" textLength="109.8" clip-path="url(#terminal-2757454657-line-1)">diff&#160;pass</text><text class="terminal-2757454657-r7" x="597.8" y="44.4" textLength="36.6" clip-path="url(#terminal-2757454657-line-1)">&#160;0s</text><text class="terminal-2757454657-r7" x="634.4" y="44.4" textLength="73.2" clip-path="url(#terminal-2757454657-line-1)">&#160;&#160;-&gt;&#160;&#160;</text><text class="terminal-2757454657-r6" x="707.6" y="44.4" textLength="134.2" clip-path="url(#terminal-2757454657-line-1)">review&#160;pass</text><text class="terminal-2757454657-r7" x="841.8" y="44.4" textLength="73.2" clip-path="url(#terminal-2757454657-line-1)">&#160;&#160;-&gt;&#160;&#160;</text><text class="terminal-2757454657-r6" x="915" y="44.4" textLength="158.6" clip-path="url(#terminal-2757454657-line-1)">security&#160;pass</text><text class="terminal-2757454657-r7" x="1073.6" y="44.4" textLength="73.2" clip-path="url(#terminal-2757454657-line-1)">&#160;&#160;-&gt;&#160;&#160;</text><text class="terminal-2757454657-r6" x="1146.8" y="44.4" textLength="146.4" clip-path="url(#terminal-2757454657-line-1)">distill&#160;pass</text><text class="terminal-2757454657-r5" x="1342" y="44.4" textLength="12.2" clip-path="url(#terminal-2757454657-line-1)">
</text><text class="terminal-2757454657-r8" x="0" y="68.8" textLength="1342" clip-path="url(#terminal-2757454657-line-2)">──────────────────────────────────────────────────────────────────────────────────────────────────────────────</text><text class="terminal-2757454657-r5" x="1342" y="68.8" textLength="12.2" clip-path="url(#terminal-2757454657-line-2)">
</text><text class="terminal-2757454657-r2" x="0" y="93.2" textLength="122" clip-path="url(#terminal-2757454657-line-3)">&#160;phase&#160;&#160;&#160;&#160;</text><text class="terminal-2757454657-r2" x="122" y="93.2" textLength="122" clip-path="url(#terminal-2757454657-line-3)">&#160;severity&#160;</text><text class="terminal-2757454657-r2" x="244" y="93.2" textLength="183" clip-path="url(#terminal-2757454657-line-3)">&#160;category&#160;&#160;&#160;&#160;&#160;&#160;</text><text class="terminal-2757454657-r2" x="427" y="93.2" textLength="122" clip-path="url(#terminal-2757454657-line-3)">&#160;location&#160;</text><text class="terminal-2757454657-r2" x="549" y="93.2" textLength="85.4" clip-path="url(#terminal-2757454657-line-3)">&#160;model&#160;</text><text class="terminal-2757454657-r2" x="634.4" y="93.2" textLength="61" clip-path="url(#terminal-2757454657-line-3)">&#160;att&#160;</text><text class="terminal-2757454657-r5" x="1342" y="93.2" textLength="12.2" clip-path="url(#terminal-2757454657-line-3)">
</text><text class="terminal-2757454657-r10" x="0" y="117.6" textLength="122" clip-path="url(#terminal-2757454657-line-4)">&#160;verify&#160;&#160;&#160;</text><text class="terminal-2757454657-r10" x="122" y="117.6" textLength="122" clip-path="url(#terminal-2757454657-line-4)">&#160;skipped&#160;&#160;</text><text class="terminal-2757454657-r10" x="244" y="117.6" textLength="183" clip-path="url(#terminal-2757454657-line-4)">&#160;phase_skipped&#160;</text><text class="terminal-2757454657-r10" x="549" y="117.6" textLength="85.4" clip-path="url(#terminal-2757454657-line-4)">&#160;-&#160;&#160;&#160;&#160;&#160;</text><text class="terminal-2757454657-r10" x="634.4" y="117.6" textLength="61" clip-path="url(#terminal-2757454657-line-4)">&#160;1&#160;&#160;&#160;</text><text class="terminal-2757454657-r5" x="1342" y="117.6" textLength="12.2" clip-path="url(#terminal-2757454657-line-4)">
</text><text class="terminal-2757454657-r9" x="0" y="142" textLength="122" clip-path="url(#terminal-2757454657-line-5)">&#160;review&#160;&#160;&#160;</text><text class="terminal-2757454657-r9" x="122" y="142" textLength="122" clip-path="url(#terminal-2757454657-line-5)">&#160;skipped&#160;&#160;</text><text class="terminal-2757454657-r9" x="244" y="142" textLength="183" clip-path="url(#terminal-2757454657-line-5)">&#160;phase_skipped&#160;</text><text class="terminal-2757454657-r9" x="549" y="142" textLength="85.4" clip-path="url(#terminal-2757454657-line-5)">&#160;-&#160;&#160;&#160;&#160;&#160;</text><text class="terminal-2757454657-r9" x="634.4" y="142" textLength="61" clip-path="url(#terminal-2757454657-line-5)">&#160;1&#160;&#160;&#160;</text><text class="terminal-2757454657-r5" x="1342" y="142" textLength="12.2" clip-path="url(#terminal-2757454657-line-5)">
</text><text class="terminal-2757454657-r9" x="0" y="166.4" textLength="122" clip-path="url(#terminal-2757454657-line-6)">&#160;security&#160;</text><text class="terminal-2757454657-r9" x="122" y="166.4" textLength="122" clip-path="url(#terminal-2757454657-line-6)">&#160;skipped&#160;&#160;</text><text class="terminal-2757454657-r9" x="244" y="166.4" textLength="183" clip-path="url(#terminal-2757454657-line-6)">&#160;phase_skipped&#160;</text><text class="terminal-2757454657-r9" x="549" y="166.4" textLength="85.4" clip-path="url(#terminal-2757454657-line-6)">&#160;-&#160;&#160;&#160;&#160;&#160;</text><text class="terminal-2757454657-r9" x="634.4" y="166.4" textLength="61" clip-path="url(#terminal-2757454657-line-6)">&#160;1&#160;&#160;&#160;</text><text class="terminal-2757454657-r5" x="1342" y="166.4" textLength="12.2" clip-path="url(#terminal-2757454657-line-6)">
</text><text class="terminal-2757454657-r11" x="0" y="190.8" textLength="1342" clip-path="url(#terminal-2757454657-line-7)">──────────────────────────────────────────────────────────────────────────────────────────────────────────────</text><text class="terminal-2757454657-r5" x="1342" y="190.8" textLength="12.2" clip-path="url(#terminal-2757454657-line-7)">
</text><text class="terminal-2757454657-r9" x="0" y="215.2" textLength="646.6" clip-path="url(#terminal-2757454657-line-8)">Reading&#160;PRD:&#160;scripts/ralph/feature/component/prd.json</text><text class="terminal-2757454657-r5" x="1342" y="215.2" textLength="12.2" clip-path="url(#terminal-2757454657-line-8)">
</text><text class="terminal-2757454657-r9" x="0" y="239.6" textLength="475.8" clip-path="url(#terminal-2757454657-line-9)">Analyzing&#160;module&#160;map&#160;and&#160;conventions...</text><text class="terminal-2757454657-r5" x="1342" y="239.6" textLength="12.2" clip-path="url(#terminal-2757454657-line-9)">
</text><text class="terminal-2757454657-r9" x="0" y="264" textLength="622.2" clip-path="url(#terminal-2757454657-line-10)">Editing&#160;src/auth/handler.py:&#160;add&#160;session&#160;validation</text><text class="terminal-2757454657-r5" x="1342" y="264" textLength="12.2" clip-path="url(#terminal-2757454657-line-10)">
</text><text class="terminal-2757454657-r9" x="0" y="288.4" textLength="427" clip-path="url(#terminal-2757454657-line-11)">Running:&#160;uv&#160;run&#160;pytest&#160;tests/&#160;-x&#160;-q</text><text class="terminal-2757454657-r5" x="1342" y="288.4" textLength="12.2" clip-path="url(#terminal-2757454657-line-11)">
</text><text class="terminal-2757454657-r9" x="0" y="312.8" textLength="244" clip-path="url(#terminal-2757454657-line-12)">&#160;&#160;12&#160;passed&#160;in&#160;3.41s</text><text class="terminal-2757454657-r5" x="1342" y="312.8" textLength="12.2" clip-path="url(#terminal-2757454657-line-12)">
</text><text class="terminal-2757454657-r9" x="0" y="337.2" textLength="195.2" clip-path="url(#terminal-2757454657-line-13)">##&#160;Self-Critique</text><text class="terminal-2757454657-r5" x="1342" y="337.2" textLength="12.2" clip-path="url(#terminal-2757454657-line-13)">
</text><text class="terminal-2757454657-r9" x="0" y="361.6" textLength="610" clip-path="url(#terminal-2757454657-line-14)">-&#160;Session&#160;TTL&#160;assumed&#160;24h;&#160;PRD&#160;does&#160;not&#160;state&#160;one.</text><text class="terminal-2757454657-r5" x="1342" y="361.6" textLength="12.2" clip-path="url(#terminal-2757454657-line-14)">
</text><text class="terminal-2757454657-r9" x="0" y="386" textLength="329.4" clip-path="url(#terminal-2757454657-line-15)">&lt;promise&gt;COMPLETE&lt;/promise&gt;</text><text class="terminal-2757454657-r5" x="1342" y="386" textLength="12.2" clip-path="url(#terminal-2757454657-line-15)">
</text><text class="terminal-2757454657-r5" x="1342" y="410.4" textLength="12.2" clip-path="url(#terminal-2757454657-line-16)">
</text><text class="terminal-2757454657-r5" x="1342" y="434.8" textLength="12.2" clip-path="url(#terminal-2757454657-line-17)">
</text><text class="terminal-2757454657-r5" x="1342" y="459.2" textLength="12.2" clip-path="url(#terminal-2757454657-line-18)">
</text><text class="terminal-2757454657-r5" x="1342" y="483.6" textLength="12.2" clip-path="url(#terminal-2757454657-line-19)">
</text><text class="terminal-2757454657-r5" x="1342" y="508" textLength="12.2" clip-path="url(#terminal-2757454657-line-20)">
</text><text class="terminal-2757454657-r5" x="1342" y="532.4" textLength="12.2" clip-path="url(#terminal-2757454657-line-21)">
</text><text class="terminal-2757454657-r5" x="1342" y="556.8" textLength="12.2" clip-path="url(#terminal-2757454657-line-22)">
</text><text class="terminal-2757454657-r5" x="1342" y="581.2" textLength="12.2" clip-path="url(#terminal-2757454657-line-23)">
</text><text class="terminal-2757454657-r5" x="1342" y="605.6" textLength="12.2" clip-path="url(#terminal-2757454657-line-24)">
</text><text class="terminal-2757454657-r5" x="1342" y="630" textLength="12.2" clip-path="url(#terminal-2757454657-line-25)">
</text><text class="terminal-2757454657-r5" x="1342" y="654.4" textLength="12.2" clip-path="url(#terminal-2757454657-line-26)">
</text><text class="terminal-2757454657-r5" x="1342" y="678.8" textLength="12.2" clip-path="url(#terminal-2757454657-line-27)">
</text><text class="terminal-2757454657-r4" x="12.2" y="703.2" textLength="146.4" clip-path="url(#terminal-2757454657-line-28)">&#160;&#160;&#160;&#160;branch&#160;&#160;</text><text class="terminal-2757454657-r9" x="158.6" y="703.2" textLength="280.6" clip-path="url(#terminal-2757454657-line-28)">ralph/factory/auth-core</text><text class="terminal-2757454657-r5" x="1342" y="703.2" textLength="12.2" clip-path="url(#terminal-2757454657-line-28)">
</text><text class="terminal-2757454657-r12" x="0" y="727.6" textLength="61" clip-path="url(#terminal-2757454657-line-29)">&#160;esc&#160;</text><text class="terminal-2757454657-r9" x="61" y="727.6" textLength="61" clip-path="url(#terminal-2757454657-line-29)">Back&#160;</text><text class="terminal-2757454657-r12" x="122" y="727.6" textLength="36.6" clip-path="url(#terminal-2757454657-line-29)">&#160;f&#160;</text><text class="terminal-2757454657-r9" x="158.6" y="727.6" textLength="85.4" clip-path="url(#terminal-2757454657-line-29)">Follow&#160;</text><text class="terminal-2757454657-r12" x="244" y="727.6" textLength="36.6" clip-path="url(#terminal-2757454657-line-29)">&#160;q&#160;</text><text class="terminal-2757454657-r9" x="280.6" y="727.6" textLength="85.4" clip-path="url(#terminal-2757454657-line-29)">Detach&#160;</text><text class="terminal-2757454657-r13" x="1195.6" y="727.6" textLength="12.2" clip-path="url(#terminal-2757454657-line-29)">▏</text><text class="terminal-2757454657-r12" x="1207.8" y="727.6" textLength="24.4" clip-path="url(#terminal-2757454657-line-29)">^p</text><text class="terminal-2757454657-r9" x="1232.2" y="727.6" textLength="97.6" clip-path="url(#terminal-2757454657-line-29)">&#160;palette</text>
    </g>
    </g>
</svg>
